<svg id="e4d72d45-6d3b-45aa-99df-85cd7aae4eb8" data-name="Layer 1" xmlns="http://www.w3.org/2000/svg" width="865.76" height="682.89" viewBox="0 0 865.76 682.89"><g id="f232cc71-039f-4b0a-aa33-c9665dc0aefd" data-name="freepik--background-complete--inject-22"><path d="M723,52.8c-9.2,0-164.3,1-174,.71a.76.76,0,0,1-.39-1.4c6.16-3,13.12-2.42,19.5-4.57,3.77-1.29,6.07-3.72,8.68-6.54a18,18,0,0,1,8.06-5.27,17.06,17.06,0,0,1,8.8-.28c3.14.75,5.87,2.56,8.88,3.69,7.45,2.81,14.69.14,20-5.37,4.4-4.55,8.7-8.84,14.66-11.28a19.49,19.49,0,0,1,15.54-.22c5.69,2.56,9.6,7.77,14.94,10.88,6.34,3.71,13.92,2.82,20.9,3.94s12.37,7,18.51,10.41a13.11,13.11,0,0,0,6.68,2.06c1.37-.12,2.73-.31,4.08-.56,2.12-.27,4.11-.21,5.54,1.55C723.63,51,723.57,52.8,723,52.8Z" fill="#ebebeb"/><path d="M358.53,184.15c-9.22,0-164.32,1-174.06.72-.69,0-1.08-1.05-.38-1.4,6.15-3,13.14-2.47,19.55-4.59,3.75-1.28,6.06-3.72,8.66-6.54a18.22,18.22,0,0,1,8.08-5.27,17.09,17.09,0,0,1,8.78-.27c3.14.75,5.88,2.57,8.88,3.68,7.45,2.82,14.69.14,20-5.37,4.39-4.54,8.7-8.83,14.67-11.28a19.4,19.4,0,0,1,15.52-.2c5.69,2.56,9.6,7.69,14.95,10.87,6.33,3.7,13.91,2.83,20.9,3.95s12.37,7,18.51,10.39a13,13,0,0,0,6.69,2.08,33.35,33.35,0,0,0,4.06-.58c2.12-.25,4.12-.2,5.54,1.57C359.2,182.28,359.13,184.15,358.53,184.15Z" fill="#ebebeb"/><path d="M425.86,134.46c-6.73,0-120,.75-127.08.51a.55.55,0,0,1-.28-1c4.49-2.22,9.57-1.78,14.24-3.34,2.74-.93,4.42-2.72,6.32-4.79A13.24,13.24,0,0,1,325,122a12.44,12.44,0,0,1,6.41-.19c2.29.54,4.28,1.86,6.41,2.69,5.44,2.05,10.73.1,14.61-3.92,3.21-3.32,6.41-6.41,10.7-8.25a14.27,14.27,0,0,1,11.35-.15c4.15,1.88,7,5.67,10.91,8,4.61,2.69,10.15,2.06,15.25,2.87s9,5.13,13.51,7.6A9.56,9.56,0,0,0,419,132.1a29.48,29.48,0,0,0,3-.42c1.54-.19,3-.15,4,1.14C426.34,133.13,426.29,134.46,425.86,134.46Z" fill="#ebebeb"/><path d="M676.55,116.9c-6.73,0-120,.74-127.08.51a.55.55,0,0,1-.53-.57.56.56,0,0,1,.25-.44c4.49-2.22,9.58-1.78,14.24-3.35,2.75-.92,4.43-2.71,6.34-4.78a13.1,13.1,0,0,1,5.88-3.84,12.55,12.55,0,0,1,6.41-.2c2.29.54,4.29,1.86,6.49,2.7,5.43,2,10.71.1,14.6-3.93,3.2-3.32,6.41-6.41,10.7-8.24a14.22,14.22,0,0,1,11.35-.15c4.15,1.88,7,5.66,10.9,8,4.63,2.69,10.16,2.06,15.26,2.87s9,5.12,13.51,7.6a9.72,9.72,0,0,0,4.89,1.51,27.56,27.56,0,0,0,3-.42c1.54-.19,3-.16,4,1.14C677,115.62,677,116.9,676.55,116.9Z" fill="#ebebeb"/><path d="M354.81,47.68c-6.73,0-120,.74-127.07.52a.54.54,0,0,1-.54-.56.52.52,0,0,1,.27-.46C232,45,237,45.41,241.7,43.83c2.74-.92,4.43-2.72,6.33-4.77a13,13,0,0,1,5.9-3.84,12.23,12.23,0,0,1,6.41-.21,56.34,56.34,0,0,1,6.48,2.69c5.44,2,10.73.11,14.62-3.92,3.19-3.32,6.41-6.41,10.7-8.23a14.31,14.31,0,0,1,11.35-.17c4.15,1.89,7,5.67,10.89,8C319,36,324.53,35.4,329.65,36.2s9,5.13,13.51,7.6A9.63,9.63,0,0,0,348,45.32c1-.1,2-.26,3-.46a4.07,4.07,0,0,1,4,1.14C355.31,46.3,355.26,47.68,354.81,47.68Z" fill="#ebebeb"/><path d="M204,272.31c-.74-.31-1.06.89-.33,1.19a4,4,0,0,1,2.34,4.92.63.63,0,0,0,1.21.33A5.31,5.31,0,0,0,204,272.31Z" fill="#ebebeb"/><path d="M209.46,271.14a9.54,9.54,0,0,0-.72,5.5c.13.79,1.28.45,1.19-.33a8.12,8.12,0,0,1,.6-4.54C210.85,271.05,209.78,270.41,209.46,271.14Z" fill="#ebebeb"/><path d="M604,285.61c-.74-.3-1.06.89-.33,1.2a4,4,0,0,1,2.35,4.88.62.62,0,0,0,1.2.33A5.32,5.32,0,0,0,604,285.61Z" fill="#ebebeb"/><path d="M609.48,284.45a9.5,9.5,0,0,0-.76,5.51c.12.78,1.28.45,1.19-.33a8,8,0,0,1,.61-4.54C610.88,284.34,609.8,283.72,609.48,284.45Z" fill="#ebebeb"/><path d="M192.86,541.79c-.75-.29-1.07.9-.34,1.21a4,4,0,0,1,2.36,4.88.62.62,0,0,0,.44.76.61.61,0,0,0,.75-.44A5.31,5.31,0,0,0,192.86,541.79Z" fill="#ebebeb"/><path d="M198.29,540.64a9.7,9.7,0,0,0-.72,5.5c.13.78,1.28.45,1.21-.34a8,8,0,0,1,.59-4.53C199.69,540.54,198.62,539.93,198.29,540.64Z" fill="#ebebeb"/><path d="M286.64,298.93c-.74-.29-1.06.9-.33,1.21a4,4,0,0,1,2.36,4.88.62.62,0,1,0,1.19.32A5.31,5.31,0,0,0,286.64,298.93Z" fill="#ebebeb"/><path d="M292.09,297.82a9.7,9.7,0,0,0-.72,5.5c.13.78,1.28.45,1.21-.34a8,8,0,0,1,.59-4.53C293.47,297.71,292.41,297.09,292.09,297.82Z" fill="#ebebeb"/><path d="M449.52,271.7c-.7-.37-1.28.71-.63,1.08a3.83,3.83,0,0,1,2.05,3.77c0,.79,1.18.79,1.29,0A5.05,5.05,0,0,0,449.52,271.7Z" fill="#ebebeb"/><path d="M453.23,269.77c-.39-.71-1.47-.08-1.08.63a9.88,9.88,0,0,1,1.18,5.3.64.64,0,0,0,1.28,0A11.35,11.35,0,0,0,453.23,269.77Z" fill="#ebebeb"/><path d="M456.17,270.59a6.55,6.55,0,0,0-.79,4c.09.78,1.28.8,1.28,0a5.39,5.39,0,0,1,.62-3.34.65.65,0,0,0-.24-.87A.64.64,0,0,0,456.17,270.59Z" fill="#ebebeb"/><path d="M670.25,571.9a.62.62,0,0,0-.62,1.08,3.85,3.85,0,0,1,2.06,3.76c-.06.8,1.18.79,1.28,0A5.06,5.06,0,0,0,670.25,571.9Z" fill="#ebebeb"/><path d="M673.9,570c-.39-.71-1.45-.08-1.08.62A10,10,0,0,1,674,575.9c0,.8,1.19.8,1.28,0A11.37,11.37,0,0,0,673.9,570Z" fill="#ebebeb"/><path d="M676.78,570.79a6.36,6.36,0,0,0-.79,4c.1.79,1.28.79,1.28,0a5.42,5.42,0,0,1,.61-3.33C678.24,570.7,677.16,570.08,676.78,570.79Z" fill="#ebebeb"/><path d="M707.43,324.57a.63.63,0,0,0-.63,1.08,3.84,3.84,0,0,1,2.05,3.75c-.06.8,1.18.8,1.29,0A5,5,0,0,0,707.43,324.57Z" fill="#ebebeb"/><path d="M711.07,322.56c-.38-.71-1.46-.08-1.08.63a10,10,0,0,1,1.18,5.32c0,.79,1.2.79,1.29,0A11.32,11.32,0,0,0,711.07,322.56Z" fill="#ebebeb"/><path d="M714,323.39a6.37,6.37,0,0,0-.8,4c.09.78,1.28.8,1.28,0a5.35,5.35,0,0,1,.62-3.33C715.42,323.29,714.34,322.69,714,323.39Z" fill="#ebebeb"/><path d="M518.71,437.15a.62.62,0,0,1,.82.33.64.64,0,0,1-.2.75,5,5,0,0,0-2.5,4.67c0,.81-1.2.8-1.28,0A6.27,6.27,0,0,1,518.71,437.15Z" fill="#ebebeb"/><path d="M514.16,440.12l.42,2.5c.14.78-1.07,1.13-1.19.34s-.3-1.67-.44-2.57A.62.62,0,1,1,514.16,440.12Z" fill="#ebebeb"/><path d="M229.7,396.15a.63.63,0,0,0-.63,1.08,5,5,0,0,1,2.56,4.68c0,.79,1.21.79,1.29,0A6.31,6.31,0,0,0,229.7,396.15Z" fill="#ebebeb"/><path d="M234.25,399.13l-.42,2.5c-.15.78,1.06,1.11,1.19.33s.28-1.67.43-2.5S234.4,398.33,234.25,399.13Z" fill="#ebebeb"/><path d="M275.42,329.26c-.6-.5-1.48.37-.87.89a5.75,5.75,0,0,1,2.14,4.86.64.64,0,0,0,1.28,0A6.92,6.92,0,0,0,275.42,329.26Z" fill="#ebebeb"/><path d="M418.18,453.3c-.62-.5-1.5.37-.89.89a5.76,5.76,0,0,1,2.16,4.87c0,.79,1.2.79,1.28,0A7,7,0,0,0,418.18,453.3Z" fill="#ebebeb"/><path d="M605.86,359.3c.62-.51,1.5.37.89.87A5.76,5.76,0,0,0,604.6,365c0,.81-1.21.8-1.29,0A6.91,6.91,0,0,1,605.86,359.3Z" fill="#ebebeb"/><path d="M587.78,542.09c.6-.52,1.48.37.87.87a5.79,5.79,0,0,0-2.14,4.87c0,.81-1.21.79-1.28,0A6.88,6.88,0,0,1,587.78,542.09Z" fill="#ebebeb"/><path d="M246.48,488.82c.61-.51,1.5.37.88.89a5.73,5.73,0,0,0-2.15,4.86c0,.8-1.21.79-1.28,0A6.92,6.92,0,0,1,246.48,488.82Z" fill="#ebebeb"/><path d="M559.82,337.39a7.34,7.34,0,0,0-2,6.58c.14.78,1.29.44,1.2-.34a6,6,0,0,1,1.65-5.36C561.29,337.74,560.37,336.85,559.82,337.39Z" fill="#ebebeb"/><path d="M555.28,338.11v4.16a.64.64,0,1,0,1.28,0v-4.16a.64.64,0,0,0-1.28,0Z" fill="#ebebeb"/><path d="M561.93,339.42a3.82,3.82,0,0,0-1.75,3.38.64.64,0,0,0,1.28,0,2.56,2.56,0,0,1,1.14-2.31C563.23,340.06,562.57,339,561.93,339.42Z" fill="#ebebeb"/><path d="M463.15,423.28a7.38,7.38,0,0,0-2,6.57c.14.79,1.29.45,1.2-.33a6,6,0,0,1,1.66-5.36C464.58,423.62,463.71,422.74,463.15,423.28Z" fill="#ebebeb"/><path d="M458.62,424v4.16a.64.64,0,1,0,1.28,0V424a.64.64,0,0,0-1.28,0Z" fill="#ebebeb"/><path d="M465.26,425.32a3.82,3.82,0,0,0-1.75,3.37.64.64,0,0,0,1.28,0,2.56,2.56,0,0,1,1.14-2.31C466.56,425.94,465.94,424.87,465.26,425.32Z" fill="#ebebeb"/></g><g id="bec2d022-8875-491b-a73c-e3c2ed46c8f2" data-name="freepik--Road--inject-22"><path d="M732.63,435.57c0,31.83-49,55.51-115.86,80.56C463.47,573.55,511.66,612.45,524,620.69H133.13c60.55-69.22,181.19-108.22,261.65-128.53,92.15-23.27,178.38-46.4,178.38-58.18,0-14.78-57.95-24.52-132.3-36.17C368.25,386.44,334,369.87,334,351.88c0-17.63,61.17-30.4,110.34-36.06,45.21-5.21,194.48-14.64,194.48-23.19,0-6.95-79.63-15.54-103.13-18.07-31.47-3.39-49.91-7.6-49.91-14.71,0-1.43,1.16-2.73,3.08-3.85h6.41s-2.13,1.68-2.13,3.24c0,5,36.5,7.7,48.64,8.52,36.37,2.56,147.06,13.62,147.06,28.62,0,8.53-21.27,14.82-43.89,18.91-40.14,7.24-148,16.37-169.55,19.23-23.77,3.18-57.17,8.73-57.17,14.77,0,5.64,30.83,10.51,64.72,14.3C540.55,370,732.63,386.3,732.63,435.57Z" fill="#64ffda"/><g opacity="0.7"><path d="M732.63,435.57c0,31.83-49,55.51-115.86,80.56C463.47,573.55,511.66,612.45,524,620.69H133.13c60.55-69.22,181.19-108.22,261.65-128.53,92.15-23.27,178.38-46.4,178.38-58.18,0-14.78-57.95-24.52-132.3-36.17C368.25,386.44,334,369.87,334,351.88c0-17.63,61.17-30.4,110.34-36.06,45.21-5.21,194.48-14.64,194.48-23.19,0-6.95-79.63-15.54-103.13-18.07-31.47-3.39-49.91-7.6-49.91-14.71,0-1.43,1.16-2.73,3.08-3.85h6.41s-2.13,1.68-2.13,3.24c0,5,36.5,7.7,48.64,8.52,36.37,2.56,147.06,13.62,147.06,28.62,0,8.53-21.27,14.82-43.89,18.91-40.14,7.24-148,16.37-169.55,19.23-23.77,3.18-57.17,8.73-57.17,14.77,0,5.64,30.83,10.51,64.72,14.3C540.55,370,732.63,386.3,732.63,435.57Z" fill="#fff"/></g></g><g id="b39d023e-ce8c-4617-b8c0-0315f51ba0be" data-name="freepik--Floor--inject-22"><path d="M182.32,255.42c173.8-.78,368.78-.78,542.58,0C551.1,256.22,356.12,256.22,182.32,255.42Z" fill="#263238"/></g><g id="ac33a1e5-acbf-4199-a349-0bfae8e3f7c6" data-name="freepik--Mountains--inject-22"><path d="M718.8,255.42S659.15,195.81,647,190.47c-9.26-4.08-35.31-38.09-54.2-61.84-2.28-2.87-11-.51-13.07-3.18-7.06-9-12.82-16.5-15.74-20.34-6-7.87-40.76-4.25-46.43,0-2.91,2.16-23.53,34.24-36.64,49.44-4.22,4.88-31.9,8-43.27,10.51-11,2.42-40.45,48.56-49,51.91-47.15,18.52-58.8,35.08-68.17,38.45Z" fill="#64ffda"/><path d="M718.8,255.42S659.15,195.81,647,190.47c-9.26-4.08-35.31-38.09-54.2-61.84-2.28-2.87-11-.51-13.07-3.18-7.06-9-12.82-16.5-15.74-20.34-6-7.87-40.76-4.25-46.43,0-2.91,2.16-23.53,34.24-36.64,49.44-4.22,4.88-31.9,8-43.27,10.51-11,2.42-40.45,48.56-49,51.91-47.15,18.52-58.8,35.08-68.17,38.45Z" opacity="0.4" style="isolation:isolate"/><path d="M718.78,255.41H481.51c14.33-7.91,44.86-25,47.54-28.7,3.51-4.81,8.06-39.63,9.36-44.24s25.64-32.2,26.61-37.18-3-41.15-3.09-41.89h0a1.1,1.1,0,0,1,.26.15,1.87,1.87,0,0,1,.29.2l.29.2.24.19a2.16,2.16,0,0,1,.27.25l.1.09a1.47,1.47,0,0,1,.21.22l.14.14.19.24.44.56.47.62.5.65.54.71c3.2,4.16,8,10.48,13.79,17.8a1,1,0,0,0,.26.27,1.44,1.44,0,0,0,.27.22,2.14,2.14,0,0,0,.38.23l.32.13s.78,17.45.62,19-7.18,12.63-7.6,15,.62,11.67,0,13.66c-.39,1.14-7.4,13.26-9.23,16.24-.52.79,5,.27,5.19.27.69,0,7.24-10.78,8.5-11.54s2.3-15.26,3.19-16.36,9.41-13.09,10.52-14.41.71-19.52.71-19.52c3.54,4.45,7.33,9.25,11.22,14.18l2.93,3.69,1,1.28q1.33,1.71,2.7,3.4c1.28,1.54,2.46,3.07,3.69,4.59l1.85,2.28c.6.76,1.22,1.5,1.82,2.24l1.81,2.22c2.41,2.94,4.78,5.76,7.05,8.42l1.7,2c4.31,5,8.28,9.29,11.62,12.44.55.51,1.07,1,1.59,1.45l1,.88.6.49c.59.47,1.16.9,1.68,1.28,0,0-20.92,12.91-24,16.58s-10.6,26.92-13,29.48-18.53,13.34-17.83,14.22,30.35-4.34,33.7-9.35,10.54-24,13.86-26.6c2.56-2,14.61-10.59,21.16-14.66C686.92,223,717.58,254.55,718.78,255.41Z" opacity="0.1" style="isolation:isolate"/><path d="M492.53,197c-.92.58-17.95-3.26-18.93-3.51S467.05,181.6,466,181.8s-15.13-3.2-17-4.69-6.79-12.72-6.79-12.72h0l4.63-1c10.51-1.79,24.16-3.93,30.76-6.72.36,2.42,2.07,14.24,1.75,16.1-.36,2.06-3.14,6.86-2.31,8.38S493.45,196.38,492.53,197Z" opacity="0.1" style="isolation:isolate"/><path d="M494.72,255.41s-84-17.38-94.62-19.65c-6.77-1.45-38.1-25.22-59.48-38.88-1.65-1-9.89-.12-10.89-.53-8.62-3.51-15.22-9.74-20.51-9.74-5.77,0-50,39.15-54.59,42.43s-29.48,15.18-37.17,16.38-29,10-29,10Z" fill="#64ffda"/><path d="M494.72,255.41s-84-17.38-94.62-19.65c-6.77-1.45-38.1-25.22-59.48-38.88-1.65-1-9.89-.12-10.89-.53-8.62-3.51-15.22-9.74-20.51-9.74-5.77,0-50,39.15-54.59,42.43s-29.48,15.18-37.17,16.38-29,10-29,10Z" opacity="0.2" style="isolation:isolate"/><path d="M315.92,230.25c-1.06-.55-1.41-7-1.74-8.12s-15.39-11.3-15.53-12.82,10.57-22.75,10.57-22.75c-5.77,0-50,39.15-54.59,42.43-.29.21-.65.45-1.09.72l-.72.42c-.88.53-2,1.12-3.2,1.77l-1.09.58-1.77.91-1.28.63-2,1-1.37.66c-1.39.66-2.81,1.29-4.27,2-5.32,2.45-10.89,4.8-15.19,6.28l-1.15.37c-.35.13-.71.23-1.06.34L219,245l-.86.2-.77.14c-.49.08-1,.18-1.6.31l-.9.22-1,.26-1,.28-1.06.31-2.23.69-2.36.78-1.82.63-.6.22-1.22.43-.6.22-1.29.44c-7,2.56-13.38,5.2-13.38,5.2H372.45C353.93,247.3,316.7,230.64,315.92,230.25Zm-42.09-1.94c-.6-.11-4.61-3.56-5.12-3.68s-1.77-2.83-1.46-3,2.15-.68,2.44-.72,1.93,1.66,2.22,1.66a54.87,54.87,0,0,1,6.41.25c.54.26,4.8,5,4.63,5.45S274.42,228.43,273.83,228.31Z" opacity="0.1" style="isolation:isolate"/></g><g id="e1d6f1bc-34a7-4ee2-95f6-badc2b74ef7e" data-name="freepik--Locator--inject-22"><path d="M556.83,48.46c-.77-7.8-6.14-15.56-15.6-15.56s-14.81,7.76-15.59,15.56c-1.19,12,6.94,22.94,15.59,32.9C549.91,71.4,558,60.5,556.83,48.46Zm-15.6,8.66a8.55,8.55,0,1,1,8.52-8.57v0a8.53,8.53,0,0,1-8.52,8.55Z" fill="#64ffda"/><polygon points="541.24 43.38 543.14 46.09 546.31 47.06 544.32 49.71 544.37 53.02 541.24 51.96 538.12 53.02 538.15 49.71 536.18 47.06 539.33 46.09 541.24 43.38" fill="#64ffda"/></g><g id="b3c45c06-c7db-4be0-8bce-dab31f4b2919" data-name="freepik--Line--inject-22"><path d="M678,385.1l-1.17-1.5.5-.39c.79,1,1.18,1.52,1.18,1.52Z" fill="#2f2e41"/><path d="M674.28,380.62c-.73-.88-1.59-1.85-2.56-2.93l.47-.42c1,1.08,1.82,2.06,2.56,2.94Zm-5.13-5.8L666.41,372l.46-.45c1,1,1.85,1.93,2.68,2.82Zm-5.38-5.56L661,366.55l.44-.46c1,.93,1.89,1.84,2.78,2.71Zm-5.59-5.37c-.92-.85-1.87-1.72-2.86-2.57l.42-.47c1,.88,2,1.76,2.88,2.56Zm-5.77-5.13c-.95-.82-1.94-1.67-2.95-2.56l.41-.49c1,.84,2,1.69,3,2.56Zm-5.93-5c-1-.8-2-1.61-3-2.41l.4-.5c1,.8,2,1.61,3,2.41Zm-6.12-4.86c-1-.77-2.05-1.55-3.1-2.32l.37-.52c1.06.77,2.1,1.56,3.12,2.32Zm-6.24-4.59c-1-.73-2.1-1.48-3.18-2.21l.36-.52c1.07.73,2.14,1.47,3.18,2.22ZM627.71,340c-1.07-.71-2.14-1.41-3.25-2.11l.35-.55c1.1.71,2.19,1.41,3.26,2.12Zm-6.53-4.17c-1.09-.67-2.19-1.35-3.3-2l.33-.55,3.32,2Zm-6.65-4L611.16,330l.31-.56c1.14.63,2.27,1.28,3.38,1.9Zm-6.78-3.73c-1.13-.6-2.27-1.19-3.42-1.78l.28-.58c1.16.59,2.31,1.19,3.45,1.79Zm-6.89-3.51c-1.15-.57-2.32-1.13-3.5-1.68l.29-.58c1.18.55,2.34,1.12,3.5,1.68Zm-7-3.3c-1.16-.52-2.34-1.05-3.54-1.56l.25-.59,3.56,1.56Zm-7.11-3.06c-1.18-.49-2.39-1-3.59-1.44l.24-.6,3.59,1.45Zm-7.21-2.82c-1.19-.45-2.41-.89-3.62-1.28l.2-.61c1.28.44,2.45.88,3.65,1.29Zm-7.29-2.57c-1.21-.41-2.44-.8-3.68-1.2l.19-.6c1.28.38,2.48.79,3.69,1.2ZM416,311.57l-.18-.61,3.74-1,.17.62Zm148.92-1.11-3.72-1.08.18-.62c1.28.35,2.49.72,3.72,1.09Zm-141.44-.87-.16-.62,3.77-.92.15.61Zm134-1.15c-1.29-.33-2.49-.65-3.76-1l.15-.63c1.28.31,2.53.63,3.77,1ZM431,307.91l-.14-.62,3.85-.85.14.63Zm118.95-1.29-3.78-.83.14-.63c1.28.27,2.56.54,3.78.84Zm-111.38-.36-.13-.62,3.84-.75.13.63ZM542.37,305l-3.85-.71.12-.63,3.85.71Zm-96.14-.18-.12-.62,3.85-.66.1.63c-1.36.19-2.64.41-3.91.64Zm88.58-1.18c-1.28-.2-2.57-.41-3.85-.59l.09-.64,3.85.59Zm-80.94-.07-.11-.63,3.85-.55.09.64c-1.36.15-2.63.34-3.91.52Zm7.69-1-.08-.64c1.28-.16,2.57-.31,3.85-.44l.06.63Zm65.62,0c-1.28-.17-2.56-.33-3.85-.48l.08-.64,3.85.48Zm-57.93-.85V301l3.85-.34v.64Zm50.24,0c-1.28-.11-2.57-.24-3.85-.34l.07-.64,3.84.34ZM477,301.09v-.65l3.84-.23v.63Zm34.8,0c-1.28-.09-2.56-.17-3.84-.23v-.65l3.84.23Zm-27.07-.36v-.64l3.84-.13v.64Zm19.35,0c-1.28,0-2.56-.08-3.84-.11V300c1.28,0,2.56,0,3.84.11Zm-11.61-.16v-.64h3.85v.64Z" fill="#2f2e41"/><path d="M408.59,313.78l1.53-1.11s.52-.38,1.58-1.09l.34.52h0l.18.61-1.86.54Z" fill="#2f2e41"/><path d="M415.33,310l-.34-.55c1-.6,2.09-1.28,3.34-2l.34.56C417.41,308.74,416.29,309.42,415.33,310Zm6.72-4-.32-.57c1.07-.6,2.21-1.23,3.42-1.88l.31.56c-1.21.66-2.35,1.28-3.41,1.89Zm6.86-3.72-.3-.56c1.11-.59,2.27-1.18,3.48-1.79l.29.58c-1.2.6-2.37,1.19-3.47,1.77Zm7-3.49-.28-.57c1.14-.56,2.32-1.12,3.54-1.67l.27.58Zm7.08-3.28-.26-.59,3.58-1.56.25.59Zm7.16-3.08-.24-.59,3.63-1.47.23.6Zm7.26-2.88-.23-.6,3.67-1.37.21.6c-1.24.45-2.46.91-3.65,1.37Zm7.32-2.69-.22-.6c1.22-.44,2.45-.86,3.71-1.29l.2.62Zm7.38-2.57-.19-.61,3.73-1.18.18.61c-1.26.45-2.49.85-3.72,1.25Zm7.46-2.32-.19-.61,3.76-1.09.18.63c-1.27.41-2.52.78-3.75,1.14Zm7.5-2.12-.16-.62,3.78-1,.15.63Zm7.55-1.94-.15-.63,3.85-.9.14.63Zm7.61-1.76-.15-.62,3.85-.81.13.63c-1.3.32-2.58.59-3.83.87Zm7.69-1.57-.12-.63,3.85-.72.11.64Zm127.93,0L634,274l.1-.64,3.85.69Zm-7.69-1.28-3.84-.61.08-.63,3.85.61Zm-112.58,0-.1-.63,3.85-.63.1.63Zm104.88-1.12-3.85-.51.09-.64,3.85.52Zm-97.17-.09-.09-.63q1.92-.28,3.84-.54l.09.64Zm89.42-.91-3.84-.44.08-.64,3.84.44Zm-81.69-.1-.08-.64c1.28-.16,2.56-.31,3.85-.44l.07.63Zm74-.73L603.1,270v-.64l3.84.36Zm-66.2-.12-.06-.63,3.84-.36v.65Zm58.43-.55-3.84-.27v-.64l3.84.27Zm-50.7-.14V269l3.85-.26v.64Zm42.87-.4-3.85-.18v-.64l3.85.18Zm-35.07-.08v-.64l3.91-.16V269Zm27.29-.24-3.91-.1v-.6l3.91.1Zm-19.5,0v-.7l3.85-.08v.64Zm11.69-.1h-3.84v-.64h3.91Z" fill="#2f2e41"/><path d="M644.74,276l-1.28-.25-1.88-.37.11-.63.58.11-.45-.34.37-.51c1,.73,1.52,1.17,1.54,1.18Z" fill="#2f2e41"/><path d="M638.78,272.4c-1-.68-2.09-1.36-3.18-2l.34-.54c1.1.68,2.18,1.36,3.2,2.05Zm-6.41-3.95c-1.07-.62-2.19-1.28-3.3-1.82l.29-.57c1.13.59,2.25,1.21,3.33,1.82Zm-6.67-3.54c-1.13-.55-2.29-1.09-3.41-1.6l.25-.59c1.16.52,2.31,1.06,3.44,1.61Zm-6.9-3.15c-1.14-.48-2.31-.95-3.51-1.43l.23-.59c1.21.47,2.38.94,3.52,1.43Zm-107.07-1.48-.22-.6c1.21-.42,2.41-.82,3.61-1.21l.19.61Zm100-1.28c-1.16-.41-2.36-.82-3.57-1.28l.19-.62c1.28.4,2.43.81,3.6,1.29Zm-92.83-1.06-.18-.62c1.21-.37,2.43-.72,3.64-1.05l.18.62c-1.18.39-2.4.74-3.62,1.11Zm85.65-1.29c-1.19-.34-2.41-.69-3.64-1l.17-.63c1.28.34,2.46.68,3.65,1Zm-78.37-.75-.16-.63,3.7-.88.14.61c-1.2.35-2.43.65-3.66,1Zm71.07-1.18c-1.21-.28-2.44-.57-3.7-.82l.15-.63,3.7.82Zm-63.7-.51-.13-.63,3.72-.73.11.63Zm56.3-1c-1.28-.22-2.46-.42-3.72-.61l.09-.63c1.28.19,2.57.39,3.75.61ZM541,252.85l-.1-.64,3.76-.54.07.63c-1.2.24-2.44.48-3.7.62Zm41.41-.8c-1.28-.15-2.49-.29-3.76-.42V251c1.29.12,2.57.26,3.77.41Zm-33.91-.13-.07-.64c1.28-.14,2.56-.25,3.78-.36v.65C551,251.67,549.75,251.78,548.47,251.92Zm26.4-.52c-1.28-.09-2.57-.17-3.77-.22v-.64c1.28,0,2.56.13,3.84.22ZM556,251.3v-.64c1.28-.08,2.56-.15,3.84-.18v.64c-1.3,0-2.56.1-3.83.18Zm11.33-.25h-3.78v-.64h3.84Z" fill="#2f2e41"/><path d="M506.08,262.38l-.13-.26s-.28-.61-.88-1.68l.56-.31c.37.68.63,1.17.77,1.45l1.53-.58.23.6-1.8.68Z" fill="#2f2e41"/><path d="M503.13,257.15c-.65-1-1.36-2.12-2.1-3.2l.52-.36c.76,1.09,1.47,2.17,2.12,3.22Zm-4.32-6.33c-.74-1-1.52-2-2.32-3l.5-.38c.8,1,1.59,2,2.33,3.06Zm-4.74-6c-.82-1-1.66-2-2.5-2.9l.47-.43c.85,1,1.69,1.93,2.57,2.92Zm-5.13-5.73c-.87-.92-1.77-1.85-2.67-2.74l.47-.45c.89.89,1.79,1.82,2.67,2.75Zm-5.4-5.42c-.91-.86-1.84-1.73-2.82-2.57l.44-.47c1,.88,1.91,1.76,2.82,2.56Zm-5.69-5.13c-1-.81-1.93-1.63-3-2.45l.41-.5c1,.82,2,1.65,2.95,2.46Zm-6-4.82c-1-.77-2-1.54-3.06-2.31l.38-.51c1.06.77,2.08,1.54,3.07,2.31Zm-6.18-4.53c-1-.71-2.08-1.43-3.16-2.15l.34-.54c1.09.72,2.16,1.44,3.2,2.17Zm-6.4-4.23c-1.08-.66-2.17-1.28-3.27-2l.32-.55c1.11.65,2.2,1.28,3.28,2ZM452.73,211c-1.09-.62-2.22-1.28-3.35-1.84l.3-.57c1.14.61,2.26,1.29,3.37,1.85ZM446,207.43c-1.12-.58-2.27-1.14-3.43-1.71l.27-.57c1.18.56,2.32,1.13,3.45,1.7Zm-6.84-3.36-3.5-1.54.25-.59c1.18.5,2.36,1,3.52,1.55Zm-7-3c-1.17-.48-2.36-.95-3.56-1.41l.23-.59c1.2.46,2.39.92,3.57,1.4ZM425,198.33l-3.63-1.28.2-.61c1.29.41,2.44.84,3.64,1.28Zm-7.27-2.44L414,194.76l.18-.6c1.29.36,2.47.73,3.67,1.12Zm-7.35-2.08c-1.28-.33-2.45-.66-3.7-1l.16-.62c1.29.32,2.49.64,3.71,1Zm-7.42-1.89-3.73-.85.13-.63c1.28.27,2.56.55,3.75.85Zm-7.49-1.63c-1.28-.26-2.48-.5-3.75-.73l.11-.63c1.27.23,2.52.48,3.77.73Zm-7.53-1.38-3.79-.61.11-.63c1.28.2,2.56.39,3.78.61Zm-7.58-1.15c-1.28-.16-2.56-.33-3.85-.47l.08-.64c1.28.15,2.57.31,3.85.49Zm-7.6-.91-3.85-.35.07-.65,3.84.38Zm-57.42-.28v-.64l3.85-.29v.64Zm49.78-.4-3.85-.25v-.64l3.85.25ZM322.94,186v-.64l3.85-.22v.64Zm34.49-.31c-1.28,0-2.57-.11-3.85-.15v-.64c1.28,0,2.57.09,3.85.15Zm-26.88-.13v-.64l3.84-.12v.64Zm19.23-.17c-1.29,0-2.57,0-3.85-.07v-.64c1.28,0,2.56,0,3.85.06Zm-11.54,0v-.65h3.84v.65Z" fill="#2f2e41"/><path d="M308.86,187.11l.36-.55s.35-.56,1.08-1.59l.53.36-.7,1,1.28-.11.06.64-1.91.18Z" fill="#2f2e41"/><path d="M313.07,182.28l-.51-.39c.68-.89,1.46-1.91,2.36-3l.5.4C314.54,180.37,313.75,181.37,313.07,182.28Zm4.77-6-.5-.41c.78-.93,1.62-1.89,2.57-2.9l.48.42c-.95,1-1.78,2-2.55,2.87Zm5-5.73-.48-.44,2.57-2.79.46.44c-.86.94-1.72,1.88-2.57,2.77Zm5.25-5.53-.46-.45c.87-.88,1.78-1.78,2.72-2.69l.45.45c-.94.9-1.83,1.79-2.71,2.68Zm5.46-5.32-.47-.54c.91-.86,1.85-1.71,2.81-2.56l.43.47c-.93.9-1.87,1.76-2.77,2.62Zm5.64-5.13-.42-.48c.94-.82,1.91-1.66,2.9-2.5l.41.5c-1,.82-1.95,1.64-2.89,2.47Zm5.82-4.93-.41-.49c1-.79,2-1.6,3-2.4l.4.5Zm6-4.72-.39-.51c1-.76,2-1.53,3.07-2.28l.37.51Zm6.15-4.51-.37-.53c1-.73,2.06-1.46,3.13-2.18l.37.53c-1.06.72-2.1,1.44-3.13,2.17Zm6.28-4.31-.34-.52c1.05-.7,2.11-1.39,3.2-2.08l.35.54c-1.09.68-2.16,1.36-3.21,2Zm6.41-4.08-.33-.55c1.08-.65,2.17-1.28,3.28-2l.32.55q-1.56.9-3.24,2Zm6.57-3.84-.31-.55c1.1-.63,2.2-1.28,3.33-1.86l.31.56c-1.09.57-2.21,1.2-3.31,1.81Zm6.68-3.63-.31-.56c1.13-.59,2.25-1.17,3.41-1.75l.28.57C385.4,123.37,384.27,124,383.11,124.59Zm6.8-3.42-.28-.58c1.14-.54,2.29-1.09,3.46-1.61l.27.57Zm6.92-3.18-.25-.59c1.15-.51,2.32-1,3.51-1.51l.24.59c-1.12.42-2.29,1-3.44,1.46Zm7-2.95-.24-.7c1.18-.48,2.35-.94,3.56-1.39l.23.59c-1.15.51-2.33,1-3.5,1.45Zm7.11-2.72-.21-.6,3.6-1.28.2.61c-1.15.36-2.34.79-3.53,1.22Zm7.21-2.48-.19-.62,3.64-1.15.18.61c-1.17.32-2.38.71-3.58,1.11Zm7.28-2.25-.18-.61c1.22-.36,2.45-.71,3.68-1l.17.61c-1.16.29-2.44.63-3.62,1Zm7.34-2-.15-.61c1.28-.33,2.46-.63,3.71-.93l.15.63Zm7.43-1.77-.14-.63c1.28-.28,2.47-.54,3.73-.8l.12.62c-1.19.22-2.43.48-3.66.76Zm7.46-1.54-.13-.63,3.76-.69.11.63c-1.2.18-2.46.4-3.69.64Zm7.5-1.28-.11-.64,3.79-.56.09.62c-1.22.11-2.47.3-3.72.5Zm79.73-.73-3.84-.45.07-.64,3.85.46Zm-72.18-.35-.09-.64,3.84-.46.08.64c-1.27.07-2.54.22-3.78.39Zm64.62-.52L523.51,99l.07-.64c1.28.11,2.56.23,3.84.37Zm-57-.44-.06-.64,3.84-.33v.63Zm49.47-.34L516,98.32v-.64l3.84.29ZM478,98.35v-.64c1.28-.09,2.56-.17,3.84-.23v.64C480.53,98.18,479.25,98.26,478,98.35Zm34.26-.22q-1.92-.1-3.84-.18v-.64c1.28,0,2.56.1,3.84.18Zm-26.66-.19V97.3c1.28,0,2.56-.1,3.84-.13v.64c-1.32,0-2.58.08-3.85.13Zm19.05-.12-3.85-.08v-.65l3.85.09Zm-11.42-.08v-.65H497v.58h-.26Z" fill="#2f2e41"/><path d="M540.69,101l-1.91-.27.09-.64,1.91.26Z" fill="#2f2e41"/></g><g id="b642c1a5-78eb-4515-950b-078c477b9594" data-name="freepik--Flags--inject-22"><rect x="677.32" y="145.37" width="1.68" height="245.72" fill="#2f2e41"/><polygon points="688.25 383.36 668.06 383.36 670.15 374.14 686.15 374.14 688.25 383.36" fill="#2f2e41"/><polygon points="688.25 383.36 668.06 383.36 670.15 374.14 686.15 374.14 688.25 383.36" opacity="0.2"/><polygon points="691.66 391.09 664.64 391.09 667.45 378.75 688.86 378.75 691.66 391.09" fill="#2f2e41"/><rect x="409.76" y="156.84" width="1.08" height="158.55" fill="#2f2e41"/><polygon points="416.59 311.97 404.01 311.97 405.31 306.23 415.28 306.23 416.59 311.97" fill="#2f2e41"/><polygon points="416.59 311.97 404.01 311.97 405.31 306.23 415.28 306.23 416.59 311.97" fill="#2f2e41"/><polygon points="416.59 311.97 404.01 311.97 405.31 306.23 415.28 306.23 416.59 311.97" opacity="0.2"/><polygon points="418.7 316.78 401.88 316.78 403.63 309.1 416.96 309.1 418.7 316.78" fill="#2f2e41"/><rect x="643.3" y="192.79" width="0.56" height="82.67" fill="#2f2e41"/><polygon points="647.18 274.92 639.96 274.92 640.71 271.62 646.44 271.62 647.18 274.92" fill="#2f2e41"/><polygon points="647.18 274.92 639.96 274.92 640.71 271.62 646.44 271.62 647.18 274.92" opacity="0.2"/><polygon points="648.41 277.68 638.75 277.68 639.75 273.27 647.41 273.27 648.41 277.68" fill="#2f2e41"/><rect x="506.04" y="205.62" width="0.38" height="56.99" fill="#2f2e41"/><polygon points="508.22 261.68 504.26 261.68 504.67 259.86 507.81 259.86 508.22 261.68" fill="#2f2e41"/><polygon points="508.41 261.68 504.44 261.68 504.86 259.86 508 259.86 508.41 261.68" opacity="0.2"/><polygon points="508.9 263.19 503.59 263.19 504.14 260.77 508.35 260.77 508.9 263.19" fill="#2f2e41"/><rect x="309.28" y="171.29" width="0.21" height="15.43" fill="#2f2e41"/><path d="M312.27,176.92v-3.6a.54.54,0,0,0,0,.18.76.76,0,0,0,.09.18c.32.42,1.28.7,2.7.84v3.62c-1.47-.14-2.38-.43-2.7-.85a.66.66,0,0,1-.09-.19A.28.28,0,0,1,312.27,176.92Z" fill="#64ffda"/><g opacity="0.1"><path d="M312.27,176.92v-3.6a.54.54,0,0,0,0,.18.76.76,0,0,0,.09.18c.32.42,1.28.7,2.7.84v3.62c-1.47-.14-2.38-.43-2.7-.85a.66.66,0,0,1-.09-.19A.28.28,0,0,1,312.27,176.92Z"/></g><path d="M312.34,176.41a1.22,1.22,0,0,1,0,.27v-3.62a.57.57,0,0,0,0-.26C312.33,173.88,312.33,175.33,312.34,176.41Z" fill="#64ffda"/><g opacity="0.4"><path d="M312.34,176.41a1.22,1.22,0,0,1,0,.27v-3.62a.57.57,0,0,0,0-.26C312.33,173.88,312.33,175.33,312.34,176.41Z"/></g><path d="M312.32,172.8v3.61a.74.74,0,0,0,0-.21,1.74,1.74,0,0,0-.11-.18c-.33-.43-1.28-.7-2.79-.79v-3.62c1.55.1,2.47.36,2.79.81a.42.42,0,0,1,.11.18A.67.67,0,0,1,312.32,172.8Z" fill="#64ffda"/><rect x="540.52" y="85.21" width="0.21" height="15.43" fill="#263238"/><path d="M543.51,90.84V87.22a.54.54,0,0,0,0,.18.51.51,0,0,0,.09.18c.32.43,1.28.72,2.71.85V92q-2.2-.21-2.7-.84l-.1-.18Z" fill="#64ffda"/><g opacity="0.1"><path d="M543.51,90.84V87.22a.54.54,0,0,0,0,.18.51.51,0,0,0,.09.18c.32.43,1.28.72,2.71.85V92q-2.2-.21-2.7-.84l-.1-.18Z"/></g><path d="M543.59,90.33a1,1,0,0,1,0,.25,1.13,1.13,0,0,0,0,.26V87.22a1,1,0,0,1,0-.25,1.13,1.13,0,0,0,0-.26C543.56,87.8,543.58,89.24,543.59,90.33Z" fill="#64ffda"/><g opacity="0.4"><path d="M543.59,90.33a1,1,0,0,1,0,.25,1.13,1.13,0,0,0,0,.26V87.22a1,1,0,0,1,0-.25,1.13,1.13,0,0,0,0-.26C543.56,87.8,543.58,89.24,543.59,90.33Z"/></g><path d="M543.56,86.71v3.62a.37.37,0,0,0,0-.21.81.81,0,0,0-.1-.18c-.33-.45-1.28-.7-2.79-.81v-3.6c1.55.09,2.46.36,2.79.8a.57.57,0,0,1,.14.38Z" fill="#64ffda"/><path d="M701.76,191.49l-.19-29.58a5,5,0,0,0,.26,1.48,5.85,5.85,0,0,0,.79,1.48c2.57,3.47,10,5.81,22.1,6.95l.18,29.57c-12.07-1.14-19.48-3.46-22.08-6.95A4.89,4.89,0,0,1,702,193,4.61,4.61,0,0,1,701.76,191.49Z" fill="#64ffda"/><g opacity="0.1"><path d="M701.76,191.49l-.19-29.58a5,5,0,0,0,.26,1.48,5.85,5.85,0,0,0,.79,1.48c2.57,3.47,10,5.81,22.1,6.95l.18,29.57c-12.07-1.14-19.48-3.46-22.08-6.95A4.89,4.89,0,0,1,702,193,4.61,4.61,0,0,1,701.76,191.49Z"/></g><path d="M702.3,187.28a9.2,9.2,0,0,1-.29,2.15,9.07,9.07,0,0,0-.3,2.06l-.19-29.58a10.34,10.34,0,0,1,.3-2.07,9.6,9.6,0,0,0,.3-2.14C702.23,166.57,702.3,178.43,702.3,187.28Z" fill="#64ffda"/><g opacity="0.4"><path d="M702.3,187.28a9.2,9.2,0,0,1-.29,2.15,9.07,9.07,0,0,0-.3,2.06l-.19-29.58a10.34,10.34,0,0,1,.3-2.07,9.6,9.6,0,0,0,.3-2.14C702.23,166.57,702.3,178.43,702.3,187.28Z"/></g><path d="M702.17,157.7l.13,29.58a5,5,0,0,0-.3-1.7,6.09,6.09,0,0,0-.8-1.43c-2.72-3.62-10.25-5.77-22.91-6.58L678.1,148c12.67.8,20.2,3,22.91,6.57a5.38,5.38,0,0,1,.79,1.45A4.71,4.71,0,0,1,702.17,157.7Z" fill="#64ffda"/><path d="M425.54,186.61l-.13-19.09a3,3,0,0,0,.17.95,3.17,3.17,0,0,0,.51,1c1.69,2.25,6.47,3.75,14.25,4.48l.13,19.08c-7.79-.73-12.57-2.24-14.25-4.47a3.19,3.19,0,0,1-.52-1A2.57,2.57,0,0,1,425.54,186.61Z" fill="#64ffda"/><g opacity="0.1"><path d="M425.54,186.61l-.13-19.09a3,3,0,0,0,.17.95,3.17,3.17,0,0,0,.51,1c1.69,2.25,6.47,3.75,14.25,4.48l.13,19.08c-7.79-.73-12.57-2.24-14.25-4.47a3.19,3.19,0,0,1-.52-1A2.57,2.57,0,0,1,425.54,186.61Z"/></g><path d="M425.92,183.89a7.26,7.26,0,0,1-.19,1.39,5.58,5.58,0,0,0-.19,1.28l-.13-19.09a6.19,6.19,0,0,1,.19-1.28,5.88,5.88,0,0,0,.19-1.38Z" fill="#64ffda"/><g opacity="0.4"><path d="M425.92,183.89a7.26,7.26,0,0,1-.19,1.39,5.58,5.58,0,0,0-.19,1.28l-.13-19.09a6.19,6.19,0,0,1,.19-1.28,5.88,5.88,0,0,0,.19-1.38Z"/></g><path d="M425.79,164.81l.13,19.08a3.75,3.75,0,0,0-.2-1.1,4,4,0,0,0-.52-.92c-1.75-2.34-6.61-3.73-14.78-4.25l-.13-19.08c8.18.52,13,1.91,14.79,4.24a3.59,3.59,0,0,1,.52.94A3,3,0,0,1,425.79,164.81Z" fill="#64ffda"/><path d="M651.51,208.3v-10a1.69,1.69,0,0,0,.08.5,2.19,2.19,0,0,0,.27.5c.88,1.17,3.37,2,7.43,2.34v9.94c-4.06-.38-6.56-1.16-7.43-2.33a2.19,2.19,0,0,1-.27-.5A2.09,2.09,0,0,1,651.51,208.3Z" fill="#64ffda"/><g opacity="0.1"><path d="M651.51,208.3v-10a1.69,1.69,0,0,0,.08.5,2.19,2.19,0,0,0,.27.5c.88,1.17,3.37,2,7.43,2.34v9.94c-4.06-.38-6.56-1.16-7.43-2.33a2.19,2.19,0,0,1-.27-.5A2.09,2.09,0,0,1,651.51,208.3Z"/></g><path d="M651.72,206.89a3.57,3.57,0,0,1-.1.72,3.2,3.2,0,0,0-.11.69v-10a2.72,2.72,0,0,1,.09-.69,3.58,3.58,0,0,0,.11-.73C651.68,199.92,651.71,203.9,651.72,206.89Z" fill="#64ffda"/><g opacity="0.4"><path d="M651.72,206.89a3.57,3.57,0,0,1-.1.72,3.2,3.2,0,0,0-.11.69v-10a2.72,2.72,0,0,1,.09-.69,3.58,3.58,0,0,0,.11-.73C651.68,199.92,651.71,203.9,651.72,206.89Z"/></g><path d="M651.65,196.93l.07,10a1.91,1.91,0,0,0-.1-.58,2.27,2.27,0,0,0-.27-.48c-.91-1.21-3.45-1.94-7.69-2.21l-.07-10c4.26.27,6.8,1,7.69,2.21a2.12,2.12,0,0,1,.27.49A1.35,1.35,0,0,1,651.65,196.93Z" fill="#64ffda"/><path d="M511.72,216.31v-6.86a1,1,0,0,0,0,.35,1.19,1.19,0,0,0,.19.35c.6.8,2.32,1.28,5.13,1.6v6.87c-2.81-.27-4.53-.81-5.13-1.62a1.41,1.41,0,0,1-.19-.34A1,1,0,0,1,511.72,216.31Z" fill="#64ffda"/><g opacity="0.1"><path d="M511.72,216.31v-6.86a1,1,0,0,0,0,.35,1.19,1.19,0,0,0,.19.35c.6.8,2.32,1.28,5.13,1.6v6.87c-2.81-.27-4.53-.81-5.13-1.62a1.41,1.41,0,0,1-.19-.34A1,1,0,0,1,511.72,216.31Z"/></g><path d="M511.86,215.34a1.69,1.69,0,0,1-.08.5,1.84,1.84,0,0,0-.06.47v-6.86a1.84,1.84,0,0,1,.06-.47,2.09,2.09,0,0,0,0-.5C511.82,210.54,511.85,213.29,511.86,215.34Z" fill="#64ffda"/><g opacity="0.4"><path d="M511.86,215.34a1.69,1.69,0,0,1-.08.5,1.84,1.84,0,0,0-.06.47v-6.86a1.84,1.84,0,0,1,.06-.47,2.09,2.09,0,0,0,0-.5C511.82,210.54,511.85,213.29,511.86,215.34Z"/></g><path d="M511.81,208.48v6.86a1.09,1.09,0,0,0-.08-.39,1.06,1.06,0,0,0-.18-.33c-.64-.85-2.38-1.28-5.32-1.53v-6.87c2.94.2,4.68.7,5.31,1.53a2.17,2.17,0,0,1,.19.33A1.1,1.1,0,0,1,511.81,208.48Z" fill="#64ffda"/></g><rect x="352.11" y="354.08" width="27.92" height="13.12" fill="#f9b499"/><ellipse cx="387.44" cy="355.39" rx="19.3" ry="8.71" transform="translate(-18.71 689.24) rotate(-81.95)" fill="#f9b499"/><path d="M365.23,317.16s1.31,4.31-1.69,10.31" fill="none" stroke="#2f2e41" stroke-miterlimit="10"/><path d="M301.41,542s.68,10.43-1.35,14.08c0,0-.63,7.51.91,10.15,0,0,4.37,5.2,1.53,5.85,0,0-3,2.68-7.1-4.63,0,0-3-7.71-7.51-5.48a8.78,8.78,0,0,1-6.5,3.25s-1.42,17.66-8.73,15.63c0,0,3-11.57,2-14.82,0,0-11.9,16.21-21.44,11.34,0,0-1.48-1-.27-3.22a7.5,7.5,0,0,1-2-1,2.39,2.39,0,0,1,1.13-4.3,27.38,27.38,0,0,0,11.47-4.41s13.8-9.75,16-15.23c0,0,2.49-5.7,5.4-6.6C285,542.55,290.3,544.9,301.41,542Z" fill="#f9b499"/><path d="M427.11,553.44s-1.85,6.39-.74,10.34a13.53,13.53,0,0,1,.59,3.28c.08,2.42,0,6.32-1,8.08,0,0-4.37,5.19-1.53,5.84,0,0,3,2.68,7.1-4.63,0,0,2.65-6.71,6.63-5.8a2.53,2.53,0,0,1,1.26.76,8.59,8.59,0,0,0,6.12,2.81s1.42,17.66,8.73,15.63c0,0-3.05-11.57-2-14.82,0,0,12.17,15.63,21.71,10.76,0,0,1.63-.2,0-2.64a7.5,7.5,0,0,0,2.05-1,2.39,2.39,0,0,0-1.13-4.3,27.38,27.38,0,0,1-11.47-4.41s-13.8-9.74-16-15.22c0,0-2.49-5.71-5.4-6.61A82.34,82.34,0,0,1,427.11,553.44Z" fill="#f9b499"/><path d="M314.59,603.75v5.43s13.78,6.87,20.29-1.21v-6.35Z" fill="#2f2e41"/><polygon points="334.88 582.69 320.63 587.34 314.59 582.07 314.59 574.79 334.88 574.79 334.88 582.69" fill="#f9b499"/><path d="M334.88,582.69v18.93a3.82,3.82,0,0,1-1.32,2.93c-6.45,5.39-14.4,2.06-17.57.35a4.94,4.94,0,0,1-2-2.11L309,593.07a16.88,16.88,0,0,1-1-2.36c-1.64-4.83.23-7.4.23-7.4,1.55-4.18,6.35-1.24,6.35-1.24l4.76,4.15a3,3,0,0,0,2.89.59Z" fill="#64ffda"/><path d="M334.88,596.55v5.07a3.82,3.82,0,0,1-1.32,2.93c-6.45,5.39-14.4,2.06-17.57.35a4.94,4.94,0,0,1-2-2.11L309,593.07a16.88,16.88,0,0,1-1-2.36,15.65,15.65,0,0,0,7.45-1.69,1.3,1.3,0,0,1,1.91,1.3c-.47,3.93-.64,10.46,3.11,11.42C320.48,601.74,329.46,604.39,334.88,596.55Z" opacity="0.2"/><path d="M346.88,608.72s-2.23,5.48,10.51,19.46l1.5-.47s2,22.54,5.51,28c0,0,2,7.3,13.44,6.05,0,0,20,1.67,26.13-4.28,0,0-15.93-9.3-20.24-23.13-.58-1.88-1.27-3.73-2-5.56l-4.82-11.85s-12.29-21.75-23.35-17.78C353.55,599.13,345.09,601.38,346.88,608.72Z" fill="#2f2e41"/><path d="M360.6,641.53s18.39,13.2,36.14,10.65a81,81,0,0,0,7.23,5.27s-3.94,5.74-26.13,4.28c0,0-12.41,3.48-15.07-10Z" opacity="0.2"/><path d="M358.89,627.71l8.21-3.25a.5.5,0,0,1,.5.85c-3.32,2.75-8.28,7.63-7.64,11.8Z" opacity="0.2"/><path d="M311.08,531.19l-.82,42.1a3.2,3.2,0,0,0,2.17,3.11c5.52,1.9,20.09,6,28.08-.66a3.23,3.23,0,0,0,1.16-2.49v-32.4S324.41,541.89,311.08,531.19Z" fill="#2f2e41"/><path d="M447.72,548.39c-7.07,5.58-18.66,5.83-18.66,5.83A9.77,9.77,0,0,1,420,548.4l-8.71-10.32c-7.43-8.41-18.73-15.83-18.73-15.83,6.91-8.43,8.33-13.24,8.52-15.51,0,0,0-.1,0-.3a3.47,3.47,0,0,0-.77-2.31,10.47,10.47,0,0,0-6.24-3.48,14,14,0,0,0-9,2c-7.12,4.25-12.55-1.73-12.55-1.73-8.4-9.05-23.26-3.88-23.26-3.88a27.83,27.83,0,0,1-8.71,2,17.89,17.89,0,0,1-6.53-.81,10.29,10.29,0,0,1-2.52-1.18c-9.36-5.17-16.79,0-16.79,0a33.19,33.19,0,0,1-16.44,7.59,43.47,43.47,0,0,1-8,.67,20.47,20.47,0,0,0-12.66,4c-9.6,7.42-8.32,16.89-8.19,17.66-3.93-14.22,1.37-29.31,1.37-29.31,1.76-4.77,12.87-34.07,17.74-46.93a44.44,44.44,0,0,0,2.77-12.48l.8-10.67c2.59-38.75,19.7-42.95,19.7-42.95,10.34-3.87,24.87-15.5,24.87-15.5,7.1-5.48,13.24-4.52,13.24-4.52,10-6.13,27.44,0,27.44,0,27.46,2.91,44.57,18.4,44.57,18.4,6.79,5.5,10.65,23.26,10.65,23.26,4.53,16.47,6.47,44.57,6.47,44.57,4.2,13.23,1.61,30,1.61,30A66.84,66.84,0,0,0,442,498.35c3.74,11,6.81,36.49,7.77,45A5.65,5.65,0,0,1,447.72,548.39Z" fill="#64ffda"/><g opacity="0.2"><path d="M301.5,409.1c.08.73.16,1.45.22,2.18s.17,1.46.15,2.19a42.93,42.93,0,0,1-.15,4.39A38,38,0,0,1,300,426.5a37.42,37.42,0,0,1-3.62,8,42.37,42.37,0,0,1-2.46,3.65,28.28,28.28,0,0,1-2.95,3.24,43.2,43.2,0,0,0,4.74-7.27,47,47,0,0,0,3.34-8,48.31,48.31,0,0,0,1.91-8.41A62.64,62.64,0,0,0,301.5,409.1Z"/></g><path d="M340.58,498.92a17.68,17.68,0,0,1-6.53-.81c-4.59-51.78,6.53-61.89,6.53-61.89C332.18,476.59,340.58,498.92,340.58,498.92Z" opacity="0.2"/><g opacity="0.2"><path d="M317.65,391.67a22.22,22.22,0,0,1,7.19-4,26.12,26.12,0,0,1,4-1.08,21,21,0,0,1,4.11-.4L329,387.34c-1.3.38-2.58.81-3.85,1.26s-2.52.94-3.78,1.44S318.89,391.08,317.65,391.67Z"/></g><g opacity="0.2"><path d="M351.23,394.57a32.52,32.52,0,0,1,7.63-.63,49,49,0,0,1,7.64.78,51.36,51.36,0,0,1,7.42,2c1.21.39,2.39.91,3.58,1.37s2.31,1.09,3.44,1.67c-2.42-.8-4.81-1.65-7.25-2.31-.61-.16-1.22-.32-1.83-.5l-1.84-.44c-1.22-.32-2.47-.53-3.7-.78-2.48-.47-5-.78-7.5-1-1.26-.12-2.52-.16-3.78-.19S352.5,394.5,351.23,394.57Z"/></g><path d="M420,548.28,411.3,538c-7.43-8.4-18.73-15.82-18.73-15.82,6.91-8.44,8.33-13.25,8.52-15.51,0,0,0-.1,0-.3A239.26,239.26,0,0,0,398.7,463s-2.59-16.15,7.75-26.81c0,0-5.81,29.07,5.82,49.74,0,0,4.51,4.84,4.19,24.54C416.46,510.5,416.46,540.2,420,548.28Z" opacity="0.2"/><g opacity="0.2"><path d="M402.25,406.52a61.77,61.77,0,0,1,2.69,5.63c.81,1.92,1.49,3.89,2.11,5.89a47,47,0,0,1,1.44,6.1,34.08,34.08,0,0,1,.37,6.31l-.91-.23c2.16-4.92,4.46-9.78,6.68-14.67s4.58-9.72,7-14.52c-2,5-4.12,9.93-6.24,14.87s-4.31,9.84-6.57,14.71l-1,2.24.13-2.46a33.08,33.08,0,0,0-.29-6.12c-.32-2-.72-4-1.24-6A83.38,83.38,0,0,0,402.25,406.52Z"/></g><path d="M305.74,540.51c-30.9,11.76-36.29-13.61-36.29-13.61-.13-.78-1.41-10.24,8.19-17.66a20.47,20.47,0,0,1,12.66-4,44.38,44.38,0,0,0,8-.67l5.79,17c-1.25,5.51,1.37,13.54,2.62,16.88A1.67,1.67,0,0,1,305.74,540.51Z" fill="#64ffda"/><path d="M305.74,540.51c-30.9,11.76-36.29-13.61-36.29-13.61-.13-.78-1.41-10.24,8.19-17.66a20.47,20.47,0,0,1,12.66-4,44.38,44.38,0,0,0,8-.67l5.79,17c-1.25,5.51,1.37,13.54,2.62,16.88A1.67,1.67,0,0,1,305.74,540.51Z" opacity="0.2"/><path d="M401.09,506.62c-.75,5-3.37,8.68-5.45,11.63a45.3,45.3,0,0,1-3.07,3.88C380.49,541.3,348,540.21,348,540.21a48.25,48.25,0,0,1-35.52-7.87C297,521.79,290.3,505.2,290.3,505.2c16.91.34,24.44-8.26,24.44-8.26,8.33-5.22,16.79,0,16.79,0,7.86,4.35,17.76,0,17.76,0,15.56-5.38,23.26,3.88,23.26,3.88,6.41,6,12.55,1.73,12.55,1.73,9.82-5.79,15.23,1.46,15.23,1.46C401.71,505.49,401.09,506.62,401.09,506.62Z" fill="#2f2e41"/><path d="M341.67,540.85s13.54,17,17.81,38.76l52.65,5.14-4.3-50.61a114.59,114.59,0,0,0-15.26-12S383.29,539.7,348,540.21Z" fill="#2f2e41"/><path d="M341.67,540.85l4.87,7.43a10.27,10.27,0,0,1,11.37-4.56,23.92,23.92,0,0,0,7.44.66c5.56-.45,15-2,23.68-6.86a20,20,0,0,1,8.71-2.54l10.11-.61s-11.1-10.06-15.28-12.24c0,0-9,17.57-44.57,18.08Z" opacity="0.2"/><path d="M311.08,531.19l-.43,22.25s11.47,8,31,4.09V540.85S324,541.14,311.08,531.19Z" opacity="0.2"/><path d="M458.11,573.51s7.71,8.32,15.83,9.54" fill="#f9b499"/><path d="M401.09,506.62c-.85,4.4-3.37,8.68-5.45,11.63h-.08c-.5-12.09-9.89-8.93-9.89-8.93-8.16,6.43-21-1.73-21-1.73-22-6.92-38.57-1.73-38.57-1.73-20.28,2.47-13.14,26.65-13.14,26.65h0C297.43,522,290.3,505.2,290.3,505.2c16.91.34,24.44-8.26,24.44-8.26,8.33-5.22,16.79,0,16.79,0,7.86,4.35,17.76,0,17.76,0,15.56-5.38,23.26,3.88,23.26,3.88,6.41,6,12.55,1.73,12.55,1.73,9.82-5.79,15.23,1.46,15.23,1.46C401.71,505.49,401.09,506.62,401.09,506.62Z" opacity="0.2"/><path d="M412.7,589.6a11.24,11.24,0,0,1-3.27,7.51,70.35,70.35,0,0,1-21.17,14.32c-1,.44-2,.86-3.05,1.26a40.33,40.33,0,0,0-2-9.25c-2.82-8.46-9.56-19.84-25.53-20.92,0,0,4.2-11.7,26.59-13.69a16.59,16.59,0,0,1,2.11-.07,19.73,19.73,0,0,1,2.55.16C395.66,569.76,413.21,573.53,412.7,589.6Z" fill="#2f2e41"/><path d="M412.71,589.6a11.2,11.2,0,0,1-3.28,7.51,70.66,70.66,0,0,1-24.21,15.58,41,41,0,0,0-2-9.26c6.33-4.07,22.48-17.12,3.17-34.68a19.86,19.86,0,0,1,2.55.17C395.66,569.76,413.22,573.53,412.71,589.6Z" opacity="0.2"/><path d="M407.81,652.81c-.39,3.15-3.84,4.63-3.84,4.63-12.12,3.72-27.08-25.21-27.08-25.21l-7.57-21.47a15.25,15.25,0,0,0-21-8.72l-.5.26c-.25-10.64,9.88-19.78,9.88-19.78,16,1.08,22.71,12.46,25.53,20.92a40.33,40.33,0,0,1,2,9.25c1.05-.4,2.07-.82,3.05-1.26,2.35,12.82,9.72,28.46,9.72,28.46,1.53,5.48,4.45,7.3,6.39,7.88A4.78,4.78,0,0,1,407.81,652.81Z" fill="#64ffda"/><path d="M346.88,608.72s1.54-7.89,9.3-6.75a11.27,11.27,0,0,1,6.77,3.82,87.68,87.68,0,0,1,9.68,14.36l3.57-3S371.64,600,358.44,596.9a10.48,10.48,0,0,0-7.29.71C348.43,599,345.58,602.1,346.88,608.72Z" fill="#2f2e41"/><path d="M346.88,608.72s1.54-7.89,9.3-6.75a11.27,11.27,0,0,1,6.77,3.82,87.68,87.68,0,0,1,9.68,14.36l3.57-3S371.64,600,358.44,596.9a10.48,10.48,0,0,0-7.29.71C348.43,599,345.58,602.1,346.88,608.72Z" opacity="0.2"/><path d="M268.81,564.58a28,28,0,0,1-6.95,6.38,25.35,25.35,0,0,1-4.24,2.18,15.21,15.21,0,0,1-4.64,1,30.18,30.18,0,0,0,4.33-1.7,44,44,0,0,0,4-2.3c1.3-.83,2.56-1.74,3.8-2.66S267.59,565.58,268.81,564.58Z" fill="#f7a48b"/><path d="M394.65,346.77V344.2a.89.89,0,1,0-1.77.05,17.22,17.22,0,0,1-.17,4,4.59,4.59,0,0,1-4.23,3.82,5,5,0,0,0-1.1.15c-4,1-2.29,6.12-2.29,6.12,1.32,4.5,0,4.32,0,4.32-3.93,2.62-11.62-3-11.62-3a40.83,40.83,0,0,0-9.25-1,13,13,0,0,0-6.27,1.54L352,363.47C345.15,365,348.54,353,348.54,353a11.37,11.37,0,0,1-7,.56,7.2,7.2,0,0,1-1.67-.71.86.86,0,0,1-.15-1.35c2.44-2.41,3-10.62,3.08-16A20.36,20.36,0,0,1,348,322a16.67,16.67,0,0,1,17.28-4.81c15.93-7.12,23.61,7.49,23.61,7.49,1.87,5.07,5.25,6.19,5.25,6.19,5.06-4.5,5.06,4.87,5.06,4.87C399.53,345.27,394.65,346.77,394.65,346.77Z" fill="#2f2e41"/><path d="M385.09,358.38c1.32,4.5,0,4.32,0,4.32-3.93,2.62-11.62-3-11.62-3a40.83,40.83,0,0,0-9.25-1,13,13,0,0,0-6.27,1.54L352,363.47C345.15,365,348.54,353,348.54,353a11.37,11.37,0,0,1-7,.56s6.65-6.16,5.37-19.79c.27,1.66,5.77,34.55,19.2,17.92,0,0,8.4,16.73,19.21-2.63,0,0,0,3.51,2.1,3.25C383.38,353.25,385.09,358.38,385.09,358.38Z" opacity="0.2"/><path d="M392.88,344.25s.65-6.33.83-10.53a26.54,26.54,0,0,1,.94,10.48S394,341.83,392.88,344.25Z" opacity="0.2"/><polygon points="499.48 605.1 499.48 635.42 611.51 633.18 611.51 603.41 499.48 605.1" fill="#64ffda"/><polygon points="499.48 605.1 468.39 580.63 474.27 579.48 512.68 604.9 499.48 605.1" fill="#64ffda"/><polygon points="499.48 605.1 468.39 580.63 474.27 579.48 512.68 604.9 499.48 605.1" opacity="0.3"/><polygon points="465.5 592.45 496.67 627.56 499.48 605.1 468.39 580.63 465.5 592.45" fill="#d1d3d4"/><polygon points="465.5 592.45 464.68 595.41 499.48 635.42 499.48 605.1 496.67 627.56 465.5 592.45" fill="#64ffda"/><polygon points="465.5 592.45 464.68 595.41 499.48 635.42 499.48 605.1 496.67 627.56 465.5 592.45" opacity="0.2"/><rect x="523.22" y="613.94" width="30.02" height="13.62" fill="#2f2e41"/><circle cx="511.27" cy="621.15" r="3.72" fill="#2f2e41"/><path d="M503.56,605.1s78.29,13.66,108,12.33v-14Z" opacity="0.2"/><polygon points="507.55 579.86 475.14 567.22 592.82 565.36 619.59 578.46 507.55 579.86" fill="#808285"/><polygon points="592.29 572.61 506.49 576.25 506.49 556.86 590.43 551.81 592.29 572.61" fill="#2f2e41"/><polygon points="469.56 550.75 506.49 556.86 590.43 551.81 521.36 546.5 469.56 550.75" fill="#2f2e41"/><polygon points="469.56 550.75 506.49 556.86 590.43 551.81 521.36 546.5 469.56 550.75" opacity="0.2"/><polygon points="506.49 573.6 469.56 560.84 469.56 550.75 506.49 556.86 506.49 573.6" fill="#d1d3d4"/><polygon points="469.56 560.84 469.56 562.17 506.49 576.25 506.49 573.6 469.56 560.84" fill="#2f2e41"/><path d="M506.49,576.25v-9.53s59.78,6.95,85.28,0l.52,5.89Z" opacity="0.2"/><polygon points="473.16 584.38 473.16 566.72 507.55 579.86 507.55 605.1 473.16 584.38" fill="#d1d3d4"/><polygon points="507.55 579.86 507.55 605.1 619.59 603.23 619.59 578.46 507.55 579.86" fill="#939598"/><path d="M507.55,591.78s89.92,14.76,112,8.91v2.54l-112,1.87Z" opacity="0.2"/><rect x="531.72" y="587.67" width="29.25" height="11.4" fill="#808285"/></svg>