<svg xmlns="http://www.w3.org/2000/svg" xmlns:xlink="http://www.w3.org/1999/xlink" width="500" zoomAndPan="magnify" viewBox="0 0 375 374.999991" height="500" preserveAspectRatio="xMidYMid meet" version="1.0"><defs><clipPath id="3f7306738f"><path d="M 155 288 L 250 288 L 250 370.488281 L 155 370.488281 Z M 155 288 " clip-rule="nonzero"/></clipPath><clipPath id="098526ffc6"><path d="M 317 203 L 363.78125 203 L 363.78125 233 L 317 233 Z M 317 203 " clip-rule="nonzero"/></clipPath><clipPath id="fa93858910"><path d="M 138 4.488281 L 165 4.488281 L 165 52 L 138 52 Z M 138 4.488281 " clip-rule="nonzero"/></clipPath></defs><g clip-path="url(#3f7306738f)"><path  style="display:none" fill="#ff0000" d="M 204.574219 370.484375 C 195.296875 370.484375 177.644531 369.289062 167.351562 364.453125 C 161.125 361.523438 157.957031 345.429688 155.65625 305.050781 C 155.492188 302.140625 156.433594 299.539062 158.4375 297.332031 C 163.558594 291.714844 175.210938 288.984375 197.359375 288.222656 C 219.40625 287.445312 246.277344 289.328125 248.964844 302.511719 C 250.414062 309.648438 247.578125 332.210938 244.273438 356.671875 L 243.738281 360.675781 C 243.246094 364.390625 240.136719 368.199219 208.9375 370.367188 C 207.875 370.441406 206.382812 370.484375 204.574219 370.484375 Z M 205.214844 294.328125 C 202.796875 294.328125 200.242188 294.375 197.585938 294.464844 C 190.414062 294.71875 168.605469 295.464844 163.066406 301.527344 C 162.214844 302.46875 161.839844 303.46875 161.914062 304.664062 C 164.441406 348.832031 168.097656 357.523438 170.054688 358.777344 C 180.601562 363.734375 201.558594 364.585938 208.515625 364.109375 C 231.550781 362.511719 236.613281 360.03125 237.613281 359.316406 L 238.089844 355.820312 C 240.226562 339.960938 244.214844 310.441406 242.839844 303.738281 C 241.839844 298.867188 229.800781 294.328125 205.214844 294.328125 Z M 197.480469 291.34375 Z M 197.480469 291.34375 " fill-opacity="1" fill-rule="nonzero"/></g><path fill="#ff0000" style="display:none" d="M 159.480469 319.160156 C 158.332031 319.160156 157.226562 318.535156 156.6875 317.429688 C 155.910156 315.890625 156.539062 314.011719 158.078125 313.234375 C 189.980469 297.226562 242.648438 307.484375 244.871094 307.917969 C 246.574219 308.261719 247.664062 309.902344 247.324219 311.589844 C 246.980469 313.277344 245.335938 314.382812 243.648438 314.054688 C 243.125 313.949219 190.863281 303.78125 160.886719 318.816406 C 160.421875 319.058594 159.945312 319.160156 159.480469 319.160156 Z M 159.480469 319.160156 " fill-opacity="1" fill-rule="nonzero"/><path style="display:none" fill="#ff0000" d="M 173.894531 332.421875 C 172.59375 332.421875 171.386719 331.601562 170.9375 330.316406 C 170.371094 328.6875 171.234375 326.898438 172.878906 326.34375 C 201.914062 316.324219 243.050781 323.3125 244.796875 323.613281 C 246.5 323.910156 247.636719 325.523438 247.351562 327.226562 C 247.054688 328.925781 245.425781 330.078125 243.738281 329.777344 C 243.320312 329.703125 202.4375 322.777344 174.941406 332.257812 C 174.566406 332.363281 174.222656 332.421875 173.894531 332.421875 Z M 173.894531 332.421875 " fill-opacity="1" fill-rule="nonzero"/><path style="display:none" fill="#ff0000"  d="M 242.960938 345.964844 C 242.664062 345.964844 242.347656 345.921875 242.035156 345.832031 C 241.691406 345.726562 221.078125 339.621094 194.148438 344.339844 C 192.445312 344.636719 190.816406 343.5 190.519531 341.800781 C 190.21875 340.097656 191.355469 338.46875 193.058594 338.171875 C 221.648438 333.167969 242.976562 339.574219 243.871094 339.859375 C 245.53125 340.367188 246.457031 342.113281 245.949219 343.769531 C 245.53125 345.097656 244.289062 345.964844 242.960938 345.964844 Z M 242.960938 345.964844 " fill-opacity="1" fill-rule="nonzero"/><path fill="#ff0000" style="display:none" d="M 232.878906 294.792969 C 227.964844 278.382812 235.207031 261.777344 242.140625 250.726562 C 245.621094 245.1875 249.59375 239.945312 253.429688 234.867188 C 258.242188 228.523438 263.199219 221.953125 267.054688 214.976562 C 275.925781 198.910156 279.226562 180.09375 276.328125 161.980469 C 273.878906 146.601562 266.902344 132.101562 256.703125 121.1875 C 240.183594 103.507812 214.042969 94.023438 186.753906 95.800781 C 173.878906 96.636719 155.34375 100.3125 140.199219 112.972656 C 125.53125 125.25 116.449219 144.765625 115.910156 165.207031 C 115.402344 184.425781 122.09375 204.195312 134.761719 220.875 C 138.464844 225.757812 142.707031 230.417969 146.816406 234.925781 C 151.9375 240.558594 157.242188 246.367188 161.691406 252.800781 C 171.566406 267.046875 174.910156 282.339844 170.847656 294.761719 L 164.902344 292.820312 C 168.351562 282.277344 165.304688 268.988281 156.554688 256.371094 C 152.328125 250.277344 147.171875 244.617188 142.183594 239.152344 C 137.988281 234.539062 133.640625 229.777344 129.773438 224.667969 C 116.253906 206.871094 109.101562 185.695312 109.652344 165.058594 C 110.265625 142.839844 120.183594 121.589844 136.210938 108.179688 C 152.65625 94.425781 172.566406 90.46875 186.382812 89.558594 C 215.507812 87.664062 243.527344 97.878906 261.316406 116.914062 C 272.355469 128.742188 279.898438 144.390625 282.542969 160.996094 C 285.648438 180.484375 282.109375 200.730469 272.566406 218.007812 C 268.488281 225.386719 263.394531 232.121094 258.449219 238.644531 C 254.6875 243.617188 250.789062 248.753906 247.457031 254.054688 C 241.214844 264 234.65625 278.828125 238.882812 293 Z M 232.878906 294.792969 " fill-opacity="1" fill-rule="nonzero"/><path fill="#64ffda" d="M 209.414062 293.597656 C 205.621094 279.546875 206.90625 254.207031 213.761719 237.691406 C 210.234375 237.09375 207.023438 236.0625 204.679688 234.71875 C 204.304688 234.507812 203.945312 234.285156 203.601562 234.078125 C 199.019531 236.464844 193.714844 237.78125 188.21875 237.792969 C 188.160156 237.792969 188.113281 237.792969 188.054688 237.792969 C 193.476562 254.398438 194.523438 273.257812 191.042969 293.121094 L 184.875 292.042969 C 188.351562 272.125 187.070312 253.355469 181.183594 237.09375 C 175.058594 235.851562 169.503906 232.957031 165.351562 228.746094 C 163.917969 227.296875 162.050781 225.027344 162.183594 221.996094 C 162.289062 219.847656 163.453125 217.90625 165.410156 216.679688 C 167.710938 215.230469 170.789062 214.960938 173.238281 215.992188 C 176.6875 217.441406 180.808594 221.203125 182.4375 224.371094 C 183.617188 226.667969 184.707031 229.027344 185.695312 231.433594 C 186.515625 231.507812 187.324219 231.523438 188.160156 231.539062 C 191.625 231.523438 195 230.894531 198.046875 229.714844 C 194.015625 225.65625 191.683594 220.785156 191.550781 215.84375 C 191.429688 211.082031 194.015625 206.121094 198.152344 203.210938 C 201.648438 200.746094 205.710938 200.136719 209.308594 201.523438 C 214.433594 203.496094 217.792969 209.09375 217.480469 215.140625 C 217.164062 221.070312 213.761719 225.742188 210.953125 228.609375 C 210.460938 229.117188 209.9375 229.613281 209.398438 230.089844 C 211.398438 230.894531 213.953125 231.476562 216.65625 231.792969 C 218.421875 228.820312 220.453125 226.386719 222.738281 224.652344 C 227.070312 221.382812 231.9375 221.292969 234.820312 222.667969 C 236.910156 223.652344 238.195312 225.488281 238.269531 227.550781 C 238.390625 230.804688 236.746094 233.644531 233.65625 235.511719 C 230.308594 237.527344 225.394531 238.363281 220.332031 238.300781 C 213.851562 252.472656 211.578125 277.738281 215.417969 291.96875 Z M 230.847656 228.074219 C 229.726562 228.074219 228.144531 228.417969 226.546875 229.625 C 225.738281 230.238281 224.976562 230.984375 224.230469 231.882812 C 226.695312 231.628906 228.90625 231.074219 230.445312 230.132812 C 231.640625 229.417969 231.953125 228.730469 232.027344 228.238281 C 231.773438 228.148438 231.355469 228.074219 230.847656 228.074219 Z M 170.054688 221.621094 C 169.59375 221.621094 169.113281 221.742188 168.742188 221.964844 C 168.5625 222.085938 168.429688 222.21875 168.429688 222.28125 C 168.429688 222.429688 168.503906 223.027344 169.800781 224.339844 C 172.085938 226.65625 174.941406 228.476562 178.105469 229.703125 C 177.71875 228.863281 177.300781 228.042969 176.882812 227.222656 C 175.910156 225.339844 172.910156 222.636719 170.816406 221.757812 C 170.59375 221.667969 170.339844 221.621094 170.054688 221.621094 Z M 205.425781 207.046875 C 203.886719 207.046875 202.558594 207.78125 201.796875 208.332031 C 199.363281 210.050781 197.777344 213.007812 197.851562 215.695312 C 197.941406 219.515625 200.136719 223.382812 203.871094 226.550781 C 204.828125 225.847656 205.710938 225.070312 206.53125 224.234375 C 209.429688 221.265625 211.117188 217.90625 211.28125 214.796875 C 211.445312 211.527344 209.652344 208.332031 207.113281 207.347656 C 206.515625 207.136719 205.964844 207.046875 205.425781 207.046875 Z M 205.425781 207.046875 " fill-opacity="1" fill-rule="nonzero"/><g clip-path="url(#098526ffc6)"><path fill="#64ffda" d="M 320.464844 204.242188 C 322.394531 202.570312 325.007812 203.152344 327.203125 203.824219 C 337.6875 207.046875 348.1875 210.273438 358.671875 213.484375 C 360.585938 214.066406 362.691406 214.84375 363.4375 216.84375 C 363.765625 217.726562 363.78125 218.742188 363.722656 219.742188 C 363.421875 225.238281 359.585938 234.734375 349.054688 231.71875 C 344.542969 230.433594 306.980469 215.917969 320.464844 204.242188 Z M 320.464844 204.242188 " fill-opacity="1" fill-rule="nonzero"/></g><path fill="#64ffda" d="M 244.871094 58.589844 C 243.527344 56.738281 244.230469 54.167969 244.992188 52.003906 C 248.621094 41.65625 252.25 31.324219 255.867188 20.976562 C 256.523438 19.09375 257.359375 17.015625 259.195312 16.242188 C 260.003906 15.898438 260.914062 15.867188 261.78125 15.882812 C 266.636719 16.03125 279.136719 23.78125 273.9375 31.921875 C 271.429688 35.890625 254.253906 71.519531 244.871094 58.589844 Z M 244.871094 58.589844 " fill-opacity="1" fill-rule="nonzero"/><g clip-path="url(#fa93858910)"><path fill="#64ffda" d="M 164.785156 38.578125 C 164.976562 41.089844 165.15625 43.65625 164.425781 46.0625 C 163.691406 48.464844 161.839844 50.691406 159.363281 51.125 C 157.121094 51.511719 154.820312 50.363281 153.269531 48.6875 C 151.714844 47.015625 150.773438 44.898438 149.847656 42.804688 C 147.023438 36.429688 144.214844 30.054688 141.394531 23.664062 C 139.316406 18.972656 137.34375 13.148438 140.453125 9.058594 C 141.976562 7.042969 144.457031 5.96875 146.917969 5.371094 C 150.207031 4.5625 153.804688 4.488281 156.851562 5.9375 C 165.859375 10.222656 164.113281 30.308594 164.785156 38.578125 Z M 164.785156 38.578125 " fill-opacity="1" fill-rule="nonzero"/></g><path fill="#64ffda" d="M 326.992188 115.734375 C 324.574219 116.050781 322.09375 116.363281 319.613281 115.902344 C 317.136719 115.4375 314.671875 114.035156 313.847656 112.003906 C 313.101562 110.167969 313.863281 108.179688 315.253906 106.792969 C 316.640625 105.402344 318.570312 104.476562 320.453125 103.597656 C 326.230469 100.863281 332.011719 98.132812 337.808594 95.398438 C 342.0625 93.382812 347.441406 91.394531 351.9375 93.726562 C 354.164062 94.875 355.613281 96.863281 356.597656 98.863281 C 357.910156 101.550781 358.570312 104.523438 357.644531 107.148438 C 354.910156 114.886719 334.984375 114.675781 326.992188 115.734375 Z M 326.992188 115.734375 " fill-opacity="1" fill-rule="nonzero"/><path fill="#64ffda" d="M 96.105469 87.484375 C 94.164062 91.8125 87.351562 89.441406 82.945312 88.453125 C 73.507812 86.335938 64.140625 83.675781 54.925781 80.480469 C 52.65625 79.6875 49.996094 78.390625 49.609375 75.613281 C 49.382812 74.042969 49.980469 72.492188 50.625 71.089844 C 55.375 60.484375 58.839844 58.246094 68.5625 62.921875 C 77.121094 67.070312 100.019531 78.777344 96.105469 87.484375 Z M 96.105469 87.484375 " fill-opacity="1" fill-rule="nonzero"/><path fill="#64ffda" d="M 65.917969 154.816406 C 65.90625 159.175781 47.023438 162.476562 35.851562 163.027344 C 31.820312 163.238281 20.871094 163.566406 17.703125 161.070312 C 14.523438 158.5625 11.28125 145.839844 15.660156 143.363281 C 23.648438 138.851562 65.949219 138.851562 65.917969 154.816406 Z M 65.917969 154.816406 " fill-opacity="1" fill-rule="nonzero"/><path fill="#64ffda" d="M 72.492188 248.066406 C 69.578125 250.769531 66.636719 253.519531 63.109375 255.339844 C 59.585938 257.175781 53.535156 259.058594 49.90625 254.90625 C 46.996094 251.578125 46.667969 246.039062 49.535156 243.273438 C 59.046875 234.089844 70.085938 228.507812 79.289062 227.011719 C 98.375 223.9375 77.09375 243.796875 72.492188 248.066406 Z M 72.492188 248.066406 " fill-opacity="1" fill-rule="nonzero"/></svg>