<svg xmlns="http://www.w3.org/2000/svg" xmlns:xlink="http://www.w3.org/1999/xlink" width="500" zoomAndPan="magnify" viewBox="0 0 375 374.999991" height="500" preserveAspectRatio="xMidYMid meet" version="1.0"><defs><g/><clipPath id="adcf571eff"><path d="M 50.246094 69.199219 L 324.746094 69.199219 L 324.746094 343.699219 L 50.246094 343.699219 Z M 50.246094 69.199219 " clip-rule="nonzero"/></clipPath><clipPath id="e5ec699e08"><path d="M 64 190 L 189 190 L 189 253 L 64 253 Z M 64 190 " clip-rule="nonzero"/></clipPath><clipPath id="ab769e5c77"><path d="M 57.429688 222.160156 L 188.570312 190.109375 L 196.226562 221.4375 L 65.085938 253.488281 Z M 57.429688 222.160156 " clip-rule="nonzero"/></clipPath><clipPath id="62cdd692f1"><path d="M 57.429688 222.160156 L 188.570312 190.109375 L 196.226562 221.4375 L 65.085938 253.488281 Z M 57.429688 222.160156 " clip-rule="nonzero"/></clipPath><clipPath id="e60d5b4684"><path d="M 57.429688 222.160156 L 188.570312 190.109375 L 196.226562 221.4375 L 65.085938 253.488281 Z M 57.429688 222.160156 " clip-rule="nonzero"/></clipPath></defs><g clip-path="url(#adcf571eff)"><path fill="#ffffff" d="M 187.496094 69.199219 C 111.695312 69.199219 50.246094 130.648438 50.246094 206.449219 C 50.246094 282.253906 111.695312 343.699219 187.496094 343.699219 C 263.296875 343.699219 324.746094 282.253906 324.746094 206.449219 C 324.746094 130.648438 263.296875 69.199219 187.496094 69.199219 " fill-opacity="1" fill-rule="nonzero"/></g><g clip-path="url(#e5ec699e08)"><g clip-path="url(#ab769e5c77)"><g clip-path="url(#62cdd692f1)"><g clip-path="url(#e60d5b4684)"><path fill="#000000" d="M 69.28125 251.253906 C 69.417969 250.417969 69.070312 249.527344 68.402344 249.101562 C 68.335938 249.0625 68.265625 249.003906 68.195312 248.976562 C 68.074219 248.9375 67.949219 248.871094 67.808594 248.804688 C 67.808594 248.804688 67.796875 248.796875 67.792969 248.785156 C 67.785156 248.789062 67.785156 248.789062 67.785156 248.789062 C 67.207031 248.453125 66.582031 247.847656 66.171875 247.382812 C 66.085938 247.070312 66.019531 246.710938 65.972656 246.289062 C 65.679688 244.152344 66.835938 241.574219 69.433594 238.519531 C 70.890625 236.753906 72.816406 234.9375 75.230469 233.074219 C 77.746094 231.171875 80.878906 229.285156 84.640625 227.433594 C 92.8125 223.480469 101.023438 221 109.28125 219.980469 C 117.425781 219 125.761719 217.894531 134.304688 216.648438 C 139.003906 216.054688 143.699219 215.21875 148.359375 214.148438 C 153.015625 213.074219 157.835938 211.574219 162.792969 209.652344 C 173.59375 205.484375 181.222656 200.855469 185.664062 195.773438 C 186.667969 194.59375 187.585938 193.550781 188.4375 192.613281 C 188.445312 192.203125 188.464844 191.792969 188.480469 191.386719 C 188.332031 191.003906 188.183594 190.621094 188.03125 190.242188 C 186.984375 191.433594 185.789062 192.78125 184.394531 194.339844 C 179.792969 199.351562 172.4375 203.824219 162.277344 207.761719 C 153.660156 211.144531 145.164062 213.230469 136.839844 214.019531 C 128.40625 214.851562 120.007812 215.980469 111.660156 217.398438 C 107.140625 218.183594 102.582031 219.207031 98 220.503906 C 93.425781 221.789062 88.84375 223.585938 84.25 225.863281 C 79.765625 228.113281 76.125 230.3125 73.320312 232.441406 C 70.671875 234.640625 68.644531 236.679688 67.226562 238.558594 C 64.515625 242.273438 63.527344 245.355469 64.289062 247.8125 L 64.59375 248.636719 C 64.667969 248.859375 64.75 249.0625 64.839844 249.25 C 64.992188 249.738281 65.117188 250.238281 65.171875 250.691406 C 65.21875 251.015625 65.316406 251.332031 65.425781 251.640625 C 65.699219 252.40625 66.707031 252.957031 67.628906 252.855469 " fill-opacity="1" fill-rule="nonzero"/></g></g></g></g><g fill="#000000" fill-opacity="1"><g transform="translate(131.063053, 242.477498)"><g><path d="M 22.257812 31.085938 C 22.117188 31.097656 21.976562 31.109375 21.832031 31.121094 C 20.132812 31.269531 19.488281 31.253906 19.339844 29.550781 C 19.167969 27.566406 21.019531 24.191406 21.902344 22.828125 C 24.792969 18.21875 25.800781 17.492188 29.316406 13.542969 L 32.851562 9.808594 C 33.320312 9.410156 33.65625 9.167969 34.042969 8.707031 C 34.644531 8.226562 34.828125 7.851562 35.519531 7.578125 C 36.222656 11.589844 36.695312 13.765625 34.875 18.351562 C 34.601562 19.304688 34.03125 20.136719 33.613281 21.101562 C 33.0625 22.152344 32.613281 22.761719 31.914062 23.75 C 30.21875 26.46875 25.519531 30.804688 22.257812 31.085938 Z M -0.730469 -8.4375 C -0.378906 -4.398438 1.355469 -1.6875 4.5 -0.816406 C 7.796875 0.113281 11.613281 -0.359375 16.085938 -0.675781 L 21.867188 -0.746094 C 27.527344 -0.589844 31.40625 0.503906 34.375 5.105469 L 29.105469 10.273438 C 25.566406 13.9375 22.484375 17.132812 19.738281 21.730469 C 17.855469 24.75 16.84375 27.121094 17.144531 30.597656 C 17.402344 33.574219 20.757812 33.570312 22.746094 33.398438 C 29.765625 32.792969 39.421875 20.53125 38.558594 10.53125 C 38.40625 8.757812 37.917969 7.230469 37.433594 5.769531 C 37.925781 4.871094 42.890625 0.296875 44.277344 -1.035156 L 48.496094 -5.117188 C 51.160156 -8.203125 53.40625 -10.324219 56.261719 -13.644531 C 59.175781 -17.109375 58.058594 -15.15625 57.902344 -17 C 57.539062 -17.042969 57.242188 -17.160156 56.890625 -17.128906 C 56.320312 -17.078125 55.71875 -16.597656 54.238281 -14.753906 C 53.394531 -13.753906 52.59375 -13.113281 51.75 -12.113281 L 46.707031 -6.820312 C 43.734375 -3.988281 39.027344 1.058594 36.085938 3.386719 C 35.046875 0.476562 30.269531 -1.898438 27.429688 -2.511719 C 22.328125 -3.714844 19.101562 -3.007812 14.042969 -2.855469 C 10.199219 -2.667969 4.253906 -2.011719 2.597656 -5.511719 C 1.710938 -7.507812 1.816406 -9.585938 1.910156 -11.808594 C 2.242188 -15.410156 4.019531 -22.136719 5.800781 -25.503906 C 6.933594 -28.105469 7.578125 -29.730469 9.242188 -32.804688 L 16.746094 -43.523438 C 17.316406 -44.359375 17.859375 -44.691406 18.515625 -45.390625 C 19.550781 -46.625 21.296875 -47.917969 22.570312 -48.886719 C 24.394531 -50.113281 26.382812 -51.074219 28.367188 -51.242188 C 30.636719 -51.441406 32.78125 -50.625 34.429688 -48.050781 C 37.90625 -42.566406 37.398438 -34.378906 36.925781 -28.265625 C 36.691406 -26.816406 35.003906 -18.238281 37.203125 -18.429688 C 38.761719 -18.5625 38.878906 -20.503906 39.1875 -22.742188 C 40.101562 -27.894531 40.933594 -33.96875 40.449219 -39.570312 C 39.820312 -46.875 36.023438 -54.40625 29.246094 -54.320312 C 22.296875 -53.71875 17.75 -49.253906 13.398438 -44.234375 C 10.949219 -41.167969 7.523438 -36.15625 5.96875 -32.664062 C 2.410156 -25.855469 -1.382812 -16.027344 -0.730469 -8.4375 Z M -0.730469 -8.4375 "/></g></g></g><g fill="#000000" fill-opacity="1"><g transform="translate(187.51018, 237.60434)"><g><path d="M -22.65625 -29.90625 C -22.570312 -28.914062 -21.84375 -28.761719 -21.0625 -28.832031 C -20.636719 -28.867188 -20.21875 -28.972656 -19.871094 -29.074219 C -19.347656 -30.480469 -20.035156 -30.132812 -18.320312 -30.996094 C -17.5 -31.425781 -16.90625 -31.976562 -16.085938 -32.402344 C -11.835938 -34.484375 -7.898438 -36.039062 -3.316406 -37.578125 C -2.625 -37.851562 -1.019531 -38.277344 -0.605469 -38.453125 L -0.675781 -31.804688 C -0.664062 -30.878906 -0.601562 -29.3125 -0.664062 -28.375 C -0.839844 -26.289062 -0.0859375 -16.710938 0.148438 -14.015625 L 0.222656 -10.664062 C 0.667969 -5.488281 1.183594 2.96875 2.050781 8.039062 C 2.199219 9.742188 2.488281 12.289062 4.332031 12.128906 C 6.175781 11.96875 4.691406 7.167969 4.550781 5.535156 C 4.140625 2.429688 2.984375 -11.761719 3.015625 -13.90625 C 3.027344 -15.40625 2.609375 -18.585938 2.433594 -20.640625 C 2.347656 -21.636719 2.558594 -21.652344 2.480469 -22.574219 C 2.417969 -23.285156 2.273438 -24.128906 2.289062 -24.773438 L 2.453125 -39.433594 C 4.125 -39.933594 14.726562 -42.921875 18.625 -43.257812 C 19.125 -43.300781 19.476562 -43.332031 19.765625 -43.285156 C 20.636719 -43.148438 20.398438 -43.410156 20.671875 -42.722656 C 23.367188 -42.953125 22.273438 -45.714844 18.941406 -45.429688 C 14.613281 -45.054688 10.492188 -43.984375 6.445312 -42.851562 C 5.394531 -42.617188 3.941406 -42.0625 2.808594 -41.964844 C 2.609375 -44.234375 4.1875 -42.511719 4.03125 -44.355469 C 3.992188 -44.78125 3.898438 -45.058594 3.878906 -45.273438 C 3.746094 -45.976562 3.9375 -45.417969 3.863281 -46.269531 C 3.765625 -47.40625 3.121094 -48.277344 2.339844 -48.210938 C 1.417969 -48.132812 0.394531 -46.757812 0.015625 -42.867188 C -0.273438 -40.414062 -0.117188 -41.070312 -3.027344 -40.03125 C -6.972656 -38.546875 -22.933594 -33.097656 -22.65625 -29.90625 Z M -22.65625 -29.90625 "/></g></g></g><g fill="#000000" fill-opacity="1"><g transform="translate(195.73614, 236.894181)"><g><path d="M 2.152344 -13.117188 C 2.496094 -14.933594 4.597656 -17.898438 6.484375 -18.421875 C 6.464844 -16.132812 3.847656 -14.191406 2.152344 -13.117188 Z M -0.890625 -11.140625 C -0.71875 -9.152344 -0.636719 -7.375 1.210938 -5.820312 C 2.523438 -4.71875 3.984375 -4.34375 5.472656 -4.472656 C 9.796875 -4.847656 14.316406 -9.59375 16.714844 -12.445312 C 17.285156 -13.28125 17.28125 -13.351562 16.976562 -14.394531 C 14.847656 -14.210938 16.007812 -14.027344 13.296875 -11.507812 C 12.828125 -11.109375 12.640625 -10.808594 12.109375 -10.332031 C 10.785156 -9.148438 7.984375 -6.832031 5.5 -6.617188 C 4.648438 -6.546875 3.773438 -6.753906 3.082031 -7.339844 C 1.773438 -8.441406 1.816406 -9.585938 1.6875 -11.078125 C 3.875 -11.40625 6.25 -13.683594 7.273438 -15.058594 C 9.234375 -18.015625 8.988281 -20.851562 5.867188 -20.582031 C 2.464844 -20.289062 -1.195312 -14.683594 -0.890625 -11.140625 Z M -0.890625 -11.140625 "/></g></g></g><g fill="#000000" fill-opacity="1"><g transform="translate(211.124366, 235.565695)"><g><path d="M 5.273438 3.972656 C 5.679688 1.222656 5.632812 1.515625 7.265625 -0.269531 L 10.546875 -3.625 C 10.164062 -1.449219 7.503906 2.496094 5.273438 3.972656 Z M 6.507812 -2.417969 C 6.492188 -5.0625 9.15625 -11.433594 10.574219 -11.558594 C 11 -11.59375 11.257812 -11.117188 11.355469 -9.980469 C 11.628906 -6.789062 11.835938 -7.738281 7.957031 -3.832031 C 7.625 -3.515625 7.625 -3.515625 7.226562 -3.195312 C 6.902344 -2.808594 6.90625 -2.738281 6.507812 -2.417969 Z M -0.0234375 -0.285156 C 0.496094 5.742188 1.820312 11.988281 3.1875 17.871094 C 3.4375 19.136719 3.492188 19.773438 4.558594 19.683594 C 6.117188 19.546875 4.792969 15.804688 4.566406 13.179688 C 4.457031 11.902344 4.394531 7.050781 5.402344 6.320312 C 5.871094 5.921875 6.625 5.570312 7.167969 5.238281 C 12.695312 1.40625 13.335938 -6.082031 13.910156 -6.84375 C 14.734375 -8.058594 21.265625 -12.695312 21.179688 -13.6875 C 21.125 -14.324219 20.894531 -14.519531 20.46875 -14.484375 C 19.332031 -14.386719 16.964844 -12.039062 15.695312 -11 C 15.160156 -10.597656 14.371094 -9.8125 13.816406 -9.621094 C 13.644531 -11.609375 12.441406 -13.933594 10.386719 -13.757812 C 5.492188 -13.332031 4.730469 0.164062 3.203125 1.507812 C 2.589844 -5.582031 2.617188 -11.871094 3.382812 -18.722656 C 3.679688 -21.105469 3.929688 -20.699219 3.363281 -22.292969 C 2.988281 -22.476562 2.628906 -22.515625 2.34375 -22.492188 C -0.703125 -22.230469 -0.269531 -3.121094 -0.0234375 -0.285156 Z M -0.0234375 -0.285156 "/></g></g></g><g fill="#000000" fill-opacity="1"><g transform="translate(230.98014, 233.851519)"><g><path d="M -0.933594 -5.847656 C -0.75 -3.722656 0.589844 9.308594 3.140625 9.085938 C 4.488281 8.972656 4.890625 8.652344 5.257812 7.117188 C 5.882812 4.421875 6.191406 1.394531 7.070312 -1.683594 C 7.738281 -3.882812 9.851562 -10.851562 11.113281 -11.960938 C 11.285156 -9.976562 11.628906 -6.789062 12.046875 -5.253906 C 12.796875 -2.390625 13.96875 -1.207031 15.460938 -1.335938 C 18.792969 -1.621094 21.539062 -7.859375 22.738281 -10.535156 C 23.324219 -12.015625 24.179688 -12.875 23.605469 -14.539062 C 23.316406 -14.585938 23.027344 -14.632812 22.8125 -14.613281 C 22.246094 -14.566406 21.863281 -14.03125 21.140625 -12.46875 C 20.671875 -11.285156 20.191406 -10.246094 19.644531 -9.125 C 18.585938 -7.320312 17.347656 -4.285156 15.261719 -3.605469 C 14.1875 -5.296875 14.046875 -6.929688 13.816406 -9.621094 C 13.703125 -10.898438 13.332031 -15.226562 11.769531 -15.089844 C 9.644531 -14.90625 9.132812 -13.363281 8.234375 -11.355469 C 5.664062 -5.5625 5.210938 -3.378906 3.785156 2.460938 L 3.332031 3.855469 L 2.433594 -4.066406 C 1.824219 -11.160156 1.808594 -19.589844 2.308594 -26.203125 C 2.457031 -28.644531 3.230469 -32.070312 2.546875 -34.226562 C 2.042969 -34.253906 1.683594 -34.292969 1.398438 -34.269531 C 0.691406 -34.207031 0.519531 -33.695312 0.0429688 -31.796875 C -0.703125 -27.160156 -1.4375 -22.453125 -1.242188 -17.683594 C -1.21875 -16.613281 -1.222656 -14.96875 -1.199219 -13.898438 Z M -0.933594 -5.847656 "/></g></g></g><g fill="#000000" fill-opacity="1"><g transform="translate(252.608751, 231.984291)"><g><path d="M 2.152344 -13.117188 C 2.496094 -14.933594 4.597656 -17.898438 6.484375 -18.421875 C 6.464844 -16.132812 3.847656 -14.191406 2.152344 -13.117188 Z M -0.890625 -11.140625 C -0.71875 -9.152344 -0.636719 -7.375 1.210938 -5.820312 C 2.523438 -4.71875 3.984375 -4.34375 5.472656 -4.472656 C 9.796875 -4.847656 14.316406 -9.59375 16.714844 -12.445312 C 17.285156 -13.28125 17.28125 -13.351562 16.976562 -14.394531 C 14.847656 -14.210938 16.007812 -14.027344 13.296875 -11.507812 C 12.828125 -11.109375 12.640625 -10.808594 12.109375 -10.332031 C 10.785156 -9.148438 7.984375 -6.832031 5.5 -6.617188 C 4.648438 -6.546875 3.773438 -6.753906 3.082031 -7.339844 C 1.773438 -8.441406 1.816406 -9.585938 1.6875 -11.078125 C 3.875 -11.40625 6.25 -13.683594 7.273438 -15.058594 C 9.234375 -18.015625 8.988281 -20.851562 5.867188 -20.582031 C 2.464844 -20.289062 -1.195312 -14.683594 -0.890625 -11.140625 Z M -0.890625 -11.140625 "/></g></g></g><g fill="#000000" fill-opacity="1"><g transform="translate(267.996977, 230.655804)"><g><path d="M 1.667969 -3.859375 C 4.433594 -4.097656 6.484375 -13.417969 8.691406 -15.179688 C 9.445312 -13.890625 8.699219 -10.96875 10.484375 -6.835938 C 11.285156 -4.976562 12.65625 -3.164062 14.855469 -3.355469 C 15.28125 -3.390625 15.699219 -3.5 16.183594 -3.683594 C 17.78125 -4.25 19.804688 -7.28125 20.6875 -8.644531 C 21.0625 -9.25 24.792969 -14.855469 22.027344 -14.617188 C 20.75 -14.507812 17.722656 -5.746094 14.886719 -5.5 C 12.261719 -5.273438 11.574219 -11.574219 11.421875 -13.34375 L 10.652344 -17.28125 C 10.230469 -18.03125 9.703125 -18.339844 9.207031 -18.296875 C 7.507812 -18.152344 5.691406 -14.351562 5.332031 -13.535156 L 2.375 -8.0625 C 1.898438 -13.59375 5.933594 -20.660156 2.8125 -20.390625 C 0.117188 -20.15625 -2.871094 -3.46875 1.667969 -3.859375 Z M 1.667969 -3.859375 "/></g></g></g><g fill="#000000" fill-opacity="1"><g transform="translate(136.322768, 178.870295)"><g><path d="M 6.5625 -5.21875 C 6.050781 -4.207031 5.109375 -3.257812 3.734375 -2.375 L 1.125 -0.71875 C 1.144531 -0.6875 1.179688 -0.742188 1.234375 -0.890625 C 1.285156 -1.035156 1.289062 -1.234375 1.25 -1.484375 C 1.207031 -1.742188 1.0625 -2.066406 0.8125 -2.453125 L -3.328125 -8.9375 C -3.546875 -9.28125 -3.753906 -9.515625 -3.953125 -9.640625 C -4.148438 -9.773438 -4.320312 -9.835938 -4.46875 -9.828125 C -4.613281 -9.816406 -4.679688 -9.804688 -4.671875 -9.796875 L -2.078125 -11.453125 C -0.734375 -12.304688 0.46875 -12.765625 1.53125 -12.828125 C 2.46875 -12.878906 3.335938 -12.695312 4.140625 -12.28125 C 4.941406 -11.863281 5.601562 -11.242188 6.125 -10.421875 C 6.707031 -9.515625 7.023438 -8.617188 7.078125 -7.734375 C 7.140625 -6.847656 6.96875 -6.007812 6.5625 -5.21875 Z M 1.515625 -11.984375 C 0.972656 -11.992188 0.445312 -11.914062 -0.0625 -11.75 C -0.570312 -11.582031 -1.128906 -11.304688 -1.734375 -10.921875 L -2.8125 -10.234375 L 2.296875 -2.21875 L 3.375 -2.90625 C 4.09375 -3.363281 4.640625 -3.796875 5.015625 -4.203125 C 5.398438 -4.617188 5.679688 -5.066406 5.859375 -5.546875 C 6.078125 -6.148438 6.128906 -6.796875 6.015625 -7.484375 C 5.898438 -8.179688 5.613281 -8.890625 5.15625 -9.609375 C 4.664062 -10.378906 4.101562 -10.960938 3.46875 -11.359375 C 2.832031 -11.765625 2.179688 -11.972656 1.515625 -11.984375 Z M 1.515625 -11.984375 "/></g></g></g><g fill="#000000" fill-opacity="1"><g transform="translate(148.6852, 171.376202)"><g><path d="M 1.21875 -0.546875 C 1.226562 -0.515625 1.273438 -0.554688 1.359375 -0.671875 C 1.441406 -0.796875 1.476562 -0.984375 1.46875 -1.234375 C 1.46875 -1.492188 1.375 -1.828125 1.1875 -2.234375 L -1.9375 -9.265625 C -2.113281 -9.648438 -2.289062 -9.921875 -2.46875 -10.078125 C -2.65625 -10.242188 -2.820312 -10.34375 -2.96875 -10.375 C -3.113281 -10.40625 -3.179688 -10.40625 -3.171875 -10.375 L 2 -12.6875 L 2.640625 -11.265625 C 2.210938 -11.753906 1.566406 -11.8125 0.703125 -11.4375 L -1.28125 -10.546875 L 0.53125 -6.484375 L 3 -7.578125 C 3.1875 -7.660156 3.332031 -7.765625 3.4375 -7.890625 C 3.539062 -8.015625 3.609375 -8.125 3.640625 -8.21875 C 3.679688 -8.3125 3.703125 -8.375 3.703125 -8.40625 L 4.328125 -7.015625 C 4.304688 -7.023438 4.242188 -7.050781 4.140625 -7.09375 C 4.046875 -7.132812 3.925781 -7.15625 3.78125 -7.15625 C 3.632812 -7.15625 3.46875 -7.109375 3.28125 -7.015625 L 0.796875 -5.921875 L 2.609375 -1.859375 L 4.84375 -2.859375 C 5.269531 -3.046875 5.597656 -3.289062 5.828125 -3.59375 C 6.054688 -3.90625 6.175781 -4.234375 6.1875 -4.578125 L 6.609375 -2.953125 Z M 1.21875 -0.546875 "/></g></g></g><g fill="#000000" fill-opacity="1"><g transform="translate(158.903347, 166.973391)"><g><path d="M 5.265625 -11.875 C 5.210938 -12.070312 5.109375 -12.226562 4.953125 -12.34375 C 4.804688 -12.457031 4.609375 -12.5 4.359375 -12.46875 L 6.875 -13.203125 C 6.757812 -13.140625 6.617188 -12.972656 6.453125 -12.703125 C 6.296875 -12.429688 6.179688 -11.972656 6.109375 -11.328125 L 4.96875 -1.046875 L -1.578125 -9.15625 C -1.953125 -9.625 -2.273438 -9.925781 -2.546875 -10.0625 C -2.816406 -10.207031 -3.03125 -10.28125 -3.1875 -10.28125 L -0.6875 -11.015625 C -0.9375 -10.859375 -1.019531 -10.640625 -0.9375 -10.359375 C -0.894531 -10.210938 -0.8125 -10.0625 -0.6875 -9.90625 C -0.570312 -9.757812 -0.503906 -9.671875 -0.484375 -9.640625 L 4.515625 -3.359375 L 5.3125 -11.125 C 5.351562 -11.382812 5.335938 -11.632812 5.265625 -11.875 Z M 5.265625 -11.875 "/></g></g></g><g fill="#000000" fill-opacity="1"><g transform="translate(171.156561, 163.686718)"><g><path d="M 1.3125 -0.1875 C 1.3125 -0.15625 1.367188 -0.1875 1.484375 -0.28125 C 1.597656 -0.382812 1.6875 -0.554688 1.75 -0.796875 C 1.820312 -1.035156 1.828125 -1.378906 1.765625 -1.828125 L 0.65625 -9.4375 C 0.59375 -9.851562 0.492188 -10.164062 0.359375 -10.375 C 0.234375 -10.59375 0.101562 -10.734375 -0.03125 -10.796875 C -0.164062 -10.859375 -0.234375 -10.875 -0.234375 -10.84375 L 5.375 -11.65625 L 5.609375 -10.109375 C 5.335938 -10.703125 4.734375 -10.929688 3.796875 -10.796875 L 1.640625 -10.484375 L 2.28125 -6.09375 L 4.953125 -6.46875 C 5.160156 -6.5 5.332031 -6.554688 5.46875 -6.640625 C 5.601562 -6.734375 5.703125 -6.820312 5.765625 -6.90625 C 5.828125 -6.988281 5.863281 -7.039062 5.875 -7.0625 L 6.09375 -5.5625 C 6.070312 -5.582031 6.019531 -5.625 5.9375 -5.6875 C 5.851562 -5.75 5.738281 -5.800781 5.59375 -5.84375 C 5.445312 -5.882812 5.269531 -5.894531 5.0625 -5.875 L 2.375 -5.484375 L 3 -1.078125 L 5.421875 -1.421875 C 5.890625 -1.492188 6.273438 -1.644531 6.578125 -1.875 C 6.890625 -2.113281 7.097656 -2.394531 7.203125 -2.71875 L 7.15625 -1.03125 Z M 1.3125 -0.1875 "/></g></g></g><g fill="#000000" fill-opacity="1"><g transform="translate(182.234379, 162.282707)"><g><path d="M 1.84375 -9.34375 C 1.84375 -9.757812 1.789062 -10.070312 1.6875 -10.28125 C 1.582031 -10.5 1.46875 -10.640625 1.34375 -10.703125 C 1.21875 -10.773438 1.15625 -10.800781 1.15625 -10.78125 L 3.640625 -10.828125 C 3.640625 -10.847656 3.578125 -10.820312 3.453125 -10.75 C 3.328125 -10.675781 3.210938 -10.53125 3.109375 -10.3125 C 3.015625 -10.09375 2.96875 -9.773438 2.96875 -9.359375 L 3.109375 -0.671875 L 5.6875 -0.71875 C 6.15625 -0.726562 6.554688 -0.832031 6.890625 -1.03125 C 7.234375 -1.226562 7.472656 -1.476562 7.609375 -1.78125 L 7.359375 -0.125 L 1.328125 -0.015625 C 1.328125 0.015625 1.390625 -0.0078125 1.515625 -0.09375 C 1.640625 -0.175781 1.75 -0.332031 1.84375 -0.5625 C 1.9375 -0.800781 1.976562 -1.144531 1.96875 -1.59375 Z M 1.84375 -9.34375 "/></g></g></g><g fill="#000000" fill-opacity="1"><g transform="translate(192.967311, 162.13991)"><g><path d="M 1.703125 -5.078125 C 1.847656 -6.171875 2.21875 -7.113281 2.8125 -7.90625 C 3.40625 -8.695312 4.160156 -9.269531 5.078125 -9.625 C 6.003906 -9.976562 7.023438 -10.082031 8.140625 -9.9375 C 9.066406 -9.800781 9.90625 -9.472656 10.65625 -8.953125 C 11.414062 -8.441406 11.984375 -7.742188 12.359375 -6.859375 C 12.742188 -5.984375 12.859375 -4.972656 12.703125 -3.828125 C 12.554688 -2.722656 12.1875 -1.769531 11.59375 -0.96875 C 11 -0.175781 10.238281 0.394531 9.3125 0.75 C 8.394531 1.101562 7.378906 1.203125 6.265625 1.046875 C 5.335938 0.921875 4.492188 0.597656 3.734375 0.078125 C 2.984375 -0.429688 2.414062 -1.128906 2.03125 -2.015625 C 1.65625 -2.898438 1.546875 -3.921875 1.703125 -5.078125 Z M 11.421875 -3.765625 C 11.546875 -4.703125 11.46875 -5.578125 11.1875 -6.390625 C 10.90625 -7.203125 10.453125 -7.867188 9.828125 -8.390625 C 9.210938 -8.910156 8.484375 -9.226562 7.640625 -9.34375 C 6.867188 -9.445312 6.148438 -9.34375 5.484375 -9.03125 C 4.816406 -8.726562 4.265625 -8.238281 3.828125 -7.5625 C 3.398438 -6.894531 3.117188 -6.085938 2.984375 -5.140625 C 2.859375 -4.203125 2.929688 -3.320312 3.203125 -2.5 C 3.484375 -1.6875 3.9375 -1.019531 4.5625 -0.5 C 5.1875 0.0195312 5.921875 0.335938 6.765625 0.453125 C 7.535156 0.554688 8.25 0.453125 8.90625 0.140625 C 9.5625 -0.160156 10.109375 -0.644531 10.546875 -1.3125 C 10.992188 -1.988281 11.285156 -2.804688 11.421875 -3.765625 Z M 11.421875 -3.765625 "/></g></g></g><g fill="#000000" fill-opacity="1"><g transform="translate(208.344881, 164.641432)"><g><path d="M 10 -5.203125 C 9.832031 -4.617188 9.539062 -4.140625 9.125 -3.765625 C 8.707031 -3.398438 8.207031 -3.160156 7.625 -3.046875 C 7.039062 -2.941406 6.40625 -2.992188 5.71875 -3.203125 C 5.28125 -3.328125 4.835938 -3.507812 4.390625 -3.75 L 3.40625 -0.46875 C 3.28125 -0.0820312 3.238281 0.226562 3.28125 0.46875 C 3.320312 0.707031 3.390625 0.875 3.484375 0.96875 C 3.585938 1.070312 3.644531 1.113281 3.65625 1.09375 L 1.265625 0.390625 C 1.253906 0.410156 1.316406 0.398438 1.453125 0.359375 C 1.597656 0.328125 1.75 0.222656 1.90625 0.046875 C 2.070312 -0.117188 2.21875 -0.398438 2.34375 -0.796875 L 4.609375 -8.3125 C 4.722656 -8.707031 4.757812 -9.023438 4.71875 -9.265625 C 4.6875 -9.503906 4.625 -9.675781 4.53125 -9.78125 C 4.4375 -9.894531 4.382812 -9.941406 4.375 -9.921875 L 7.328125 -9.046875 C 7.835938 -8.890625 8.242188 -8.726562 8.546875 -8.5625 C 8.859375 -8.394531 9.125 -8.210938 9.34375 -8.015625 C 9.71875 -7.648438 9.957031 -7.210938 10.0625 -6.703125 C 10.175781 -6.191406 10.15625 -5.691406 10 -5.203125 Z M 8.796875 -5.34375 C 9.003906 -6.050781 8.953125 -6.6875 8.640625 -7.25 C 8.335938 -7.820312 7.820312 -8.21875 7.09375 -8.4375 L 5.90625 -8.796875 L 4.5625 -4.328125 C 4.976562 -4.117188 5.425781 -3.941406 5.90625 -3.796875 C 6.601562 -3.585938 7.207031 -3.625 7.71875 -3.90625 C 8.226562 -4.195312 8.585938 -4.675781 8.796875 -5.34375 Z M 8.796875 -5.34375 "/></g></g></g><g fill="#000000" fill-opacity="1"><g transform="translate(219.26131, 168.143659)"><g><path d="M 1.203125 0.546875 C 1.191406 0.578125 1.257812 0.582031 1.40625 0.5625 C 1.550781 0.539062 1.71875 0.441406 1.90625 0.265625 C 2.09375 0.0976562 2.28125 -0.1875 2.46875 -0.59375 L 5.640625 -7.59375 C 5.816406 -7.988281 5.898438 -8.304688 5.890625 -8.546875 C 5.890625 -8.796875 5.847656 -8.984375 5.765625 -9.109375 C 5.691406 -9.242188 5.648438 -9.296875 5.640625 -9.265625 L 10.8125 -6.9375 L 10.15625 -5.515625 C 10.25 -6.148438 9.867188 -6.660156 9.015625 -7.046875 L 7.015625 -7.953125 L 5.1875 -3.921875 L 7.65625 -2.796875 C 7.84375 -2.710938 8.019531 -2.671875 8.1875 -2.671875 C 8.351562 -2.671875 8.476562 -2.6875 8.5625 -2.71875 C 8.65625 -2.757812 8.710938 -2.789062 8.734375 -2.8125 L 8.109375 -1.4375 C 8.109375 -1.445312 8.09375 -1.5 8.0625 -1.59375 C 8.03125 -1.695312 7.960938 -1.804688 7.859375 -1.921875 C 7.753906 -2.035156 7.609375 -2.132812 7.421875 -2.21875 L 4.9375 -3.34375 L 3.09375 0.71875 L 5.328125 1.734375 C 5.753906 1.921875 6.164062 1.992188 6.5625 1.953125 C 6.957031 1.921875 7.28125 1.796875 7.53125 1.578125 L 6.59375 2.984375 Z M 1.203125 0.546875 "/></g></g></g><g fill="#000000" fill-opacity="1"><g transform="translate(229.334364, 172.786437)"><g><path d="M 7.484375 3.78125 C 6.347656 3.738281 5.09375 3.273438 3.71875 2.390625 L 1.109375 0.71875 C 1.085938 0.75 1.15625 0.757812 1.3125 0.75 C 1.476562 0.738281 1.664062 0.660156 1.875 0.515625 C 2.09375 0.367188 2.320312 0.101562 2.5625 -0.28125 L 6.734375 -6.765625 C 6.960938 -7.109375 7.09375 -7.394531 7.125 -7.625 C 7.15625 -7.851562 7.132812 -8.03125 7.0625 -8.15625 C 6.988281 -8.289062 6.945312 -8.347656 6.9375 -8.328125 L 9.53125 -6.65625 C 10.875 -5.789062 11.789062 -4.890625 12.28125 -3.953125 C 12.726562 -3.117188 12.925781 -2.253906 12.875 -1.359375 C 12.832031 -0.460938 12.546875 0.394531 12.015625 1.21875 C 11.429688 2.125 10.753906 2.785156 9.984375 3.203125 C 9.210938 3.628906 8.378906 3.820312 7.484375 3.78125 Z M 11.53125 -3.609375 C 11.300781 -4.117188 11.003906 -4.570312 10.640625 -4.96875 C 10.285156 -5.363281 9.804688 -5.753906 9.203125 -6.140625 L 8.125 -6.84375 L 2.96875 1.15625 L 4.046875 1.859375 C 4.765625 2.316406 5.390625 2.632812 5.921875 2.8125 C 6.460938 2.988281 6.984375 3.054688 7.484375 3.015625 C 8.117188 2.960938 8.726562 2.738281 9.3125 2.34375 C 9.894531 1.945312 10.421875 1.390625 10.890625 0.671875 C 11.378906 -0.0859375 11.675781 -0.835938 11.78125 -1.578125 C 11.882812 -2.328125 11.800781 -3.003906 11.53125 -3.609375 Z M 11.53125 -3.609375 "/></g></g></g><g fill="#000000" fill-opacity="1"><g transform="translate(241.332166, 181.015323)"><g/></g></g><g fill="#000000" fill-opacity="1"><g transform="translate(246.674663, 185.512278)"><g><path d="M 4.53125 4.375 C 4.28125 4.238281 4.019531 4.054688 3.75 3.828125 C 3.476562 3.609375 3.128906 3.273438 2.703125 2.828125 L 0.921875 0.953125 C 1.035156 1.035156 1.21875 1.0625 1.46875 1.03125 C 1.71875 1.007812 2.054688 0.796875 2.484375 0.390625 L 8.09375 -4.953125 C 8.476562 -5.328125 8.691406 -5.640625 8.734375 -5.890625 C 8.785156 -6.140625 8.773438 -6.332031 8.703125 -6.46875 L 10.484375 -4.609375 C 10.941406 -4.117188 11.269531 -3.726562 11.46875 -3.4375 C 11.675781 -3.144531 11.828125 -2.867188 11.921875 -2.609375 C 12.078125 -2.117188 12.097656 -1.644531 11.984375 -1.1875 C 11.878906 -0.738281 11.660156 -0.351562 11.328125 -0.03125 C 10.828125 0.445312 10.25 0.707031 9.59375 0.75 C 8.9375 0.789062 8.316406 0.617188 7.734375 0.234375 C 8.015625 0.597656 8.222656 1.007812 8.359375 1.46875 C 8.492188 1.925781 8.515625 2.382812 8.421875 2.84375 C 8.328125 3.300781 8.109375 3.691406 7.765625 4.015625 C 7.273438 4.484375 6.753906 4.726562 6.203125 4.75 C 5.660156 4.78125 5.101562 4.65625 4.53125 4.375 Z M 11.046875 -2.4375 C 11.015625 -2.695312 10.941406 -2.9375 10.828125 -3.15625 C 10.710938 -3.382812 10.515625 -3.648438 10.234375 -3.953125 L 9.484375 -4.734375 L 6.28125 -1.671875 L 7.171875 -0.75 C 7.429688 -0.476562 7.6875 -0.289062 7.9375 -0.1875 C 8.195312 -0.0820312 8.457031 -0.03125 8.71875 -0.03125 C 9 -0.0195312 9.28125 -0.0703125 9.5625 -0.1875 C 9.84375 -0.300781 10.085938 -0.457031 10.296875 -0.65625 C 10.554688 -0.90625 10.753906 -1.179688 10.890625 -1.484375 C 11.023438 -1.796875 11.078125 -2.113281 11.046875 -2.4375 Z M 7.609375 1.28125 C 7.585938 1.03125 7.503906 0.773438 7.359375 0.515625 C 7.210938 0.253906 6.960938 -0.0546875 6.609375 -0.421875 L 5.828125 -1.234375 L 2.609375 1.828125 L 3.640625 2.90625 C 4.160156 3.445312 4.691406 3.75 5.234375 3.8125 C 5.785156 3.875 6.34375 3.640625 6.90625 3.109375 C 7.425781 2.609375 7.660156 2 7.609375 1.28125 Z M 7.609375 1.28125 "/></g></g></g><g fill="#000000" fill-opacity="1"><g transform="translate(254.890826, 194.431036)"><g><path d="M 14.0625 1.09375 C 13.976562 1.019531 13.785156 0.953125 13.484375 0.890625 C 13.179688 0.828125 12.707031 0.828125 12.0625 0.890625 L 6.71875 1.421875 L 4.140625 3.28125 C 3.710938 3.582031 3.457031 3.851562 3.375 4.09375 C 3.289062 4.332031 3.273438 4.507812 3.328125 4.625 L 1.9375 2.6875 C 2.03125 2.78125 2.203125 2.828125 2.453125 2.828125 C 2.703125 2.828125 3.046875 2.671875 3.484375 2.359375 L 6.078125 0.484375 L 8.265625 -4.390625 C 8.523438 -4.972656 8.671875 -5.410156 8.703125 -5.703125 C 8.734375 -6.003906 8.722656 -6.226562 8.671875 -6.375 L 10.21875 -4.25 C 10.019531 -4.425781 9.804688 -4.429688 9.578125 -4.265625 C 9.503906 -4.210938 9.429688 -4.117188 9.359375 -3.984375 C 9.285156 -3.859375 9.195312 -3.675781 9.09375 -3.4375 L 7.1875 0.75 L 11.703125 0.3125 C 12.035156 0.269531 12.328125 0.160156 12.578125 -0.015625 C 12.734375 -0.128906 12.804688 -0.253906 12.796875 -0.390625 C 12.785156 -0.535156 12.757812 -0.660156 12.71875 -0.765625 Z M 14.0625 1.09375 "/></g></g></g></svg>