<svg xmlns="http://www.w3.org/2000/svg" xmlns:xlink="http://www.w3.org/1999/xlink" width="500" zoomAndPan="magnify" viewBox="0 0 375 374.999991" height="500" preserveAspectRatio="xMidYMid meet" version="1.0"><defs><g/><clipPath id="b0ba1cbf3c"><path d="M 41 168 L 189 168 L 189 243 L 41 243 Z M 41 168 " clip-rule="nonzero"/></clipPath><clipPath id="281a96b3d6"><path d="M 33.332031 206.304688 L 188.515625 168.382812 L 197.59375 205.539062 L 42.410156 243.460938 Z M 33.332031 206.304688 " clip-rule="nonzero"/></clipPath><clipPath id="58bfc88814"><path d="M 33.332031 206.304688 L 188.515625 168.382812 L 197.59375 205.539062 L 42.410156 243.460938 Z M 33.332031 206.304688 " clip-rule="nonzero"/></clipPath><clipPath id="577a99a89a"><path d="M 33.332031 206.304688 L 188.515625 168.382812 L 197.59375 205.539062 L 42.410156 243.460938 Z M 33.332031 206.304688 " clip-rule="nonzero"/></clipPath></defs><g clip-path="url(#b0ba1cbf3c)"><g clip-path="url(#281a96b3d6)"><g clip-path="url(#58bfc88814)"><g clip-path="url(#577a99a89a)"><path fill="#000000" d="M 47.386719 240.8125 C 47.546875 239.824219 47.132812 238.765625 46.34375 238.261719 C 46.265625 238.214844 46.183594 238.144531 46.097656 238.113281 C 45.957031 238.066406 45.804688 237.984375 45.644531 237.90625 C 45.644531 237.90625 45.628906 237.898438 45.625 237.886719 C 45.613281 237.886719 45.613281 237.886719 45.613281 237.886719 C 44.929688 237.488281 44.191406 236.773438 43.703125 236.222656 C 43.601562 235.851562 43.523438 235.425781 43.464844 234.925781 C 43.121094 232.390625 44.488281 229.332031 47.558594 225.710938 C 49.277344 223.617188 51.558594 221.46875 54.414062 219.257812 C 57.386719 217.003906 61.097656 214.765625 65.546875 212.574219 C 75.210938 207.894531 84.921875 204.957031 94.695312 203.753906 C 104.332031 202.59375 114.195312 201.289062 124.304688 199.820312 C 129.863281 199.121094 135.417969 198.132812 140.933594 196.863281 C 146.445312 195.59375 152.144531 193.820312 158.011719 191.542969 C 170.785156 186.605469 179.8125 181.121094 185.0625 175.101562 C 186.25 173.703125 187.335938 172.464844 188.34375 171.351562 C 188.351562 170.867188 188.375 170.382812 188.390625 169.898438 C 188.21875 169.441406 188.042969 168.992188 187.859375 168.542969 C 186.621094 169.953125 185.207031 171.550781 183.5625 173.398438 C 178.121094 179.335938 169.417969 184.636719 157.398438 189.296875 C 147.203125 193.304688 137.152344 195.773438 127.304688 196.703125 C 117.320312 197.683594 107.386719 199.019531 97.511719 200.695312 C 92.164062 201.621094 86.769531 202.832031 81.347656 204.367188 C 75.9375 205.886719 70.515625 208.015625 65.078125 210.714844 C 59.777344 213.378906 55.46875 215.984375 52.15625 218.507812 C 49.019531 221.113281 46.621094 223.53125 44.945312 225.757812 C 41.742188 230.160156 40.570312 233.816406 41.480469 236.726562 L 41.835938 237.707031 C 41.925781 237.972656 42.023438 238.210938 42.128906 238.4375 C 42.3125 239.011719 42.457031 239.609375 42.523438 240.144531 C 42.578125 240.527344 42.695312 240.90625 42.824219 241.269531 C 43.148438 242.175781 44.339844 242.832031 45.433594 242.710938 " fill-opacity="1" fill-rule="nonzero"/></g></g></g></g><g fill="#000000" fill-opacity="1"><g transform="translate(120.615115, 230.391656)"><g><path d="M 26.386719 36.847656 C 26.21875 36.863281 26.050781 36.878906 25.882812 36.890625 C 23.863281 37.066406 23.101562 37.046875 22.925781 35.03125 C 22.722656 32.675781 24.917969 28.675781 25.964844 27.0625 C 29.386719 21.597656 30.585938 20.734375 34.753906 16.054688 L 38.945312 11.628906 C 39.496094 11.15625 39.894531 10.867188 40.355469 10.320312 C 41.070312 9.75 41.285156 9.308594 42.105469 8.984375 C 42.9375 13.738281 43.5 16.316406 41.34375 21.753906 C 41.015625 22.882812 40.339844 23.871094 39.847656 25.015625 C 39.191406 26.257812 38.660156 26.980469 37.832031 28.152344 C 35.820312 31.375 30.253906 36.515625 26.386719 36.847656 Z M -0.863281 -10.003906 C -0.449219 -5.210938 1.605469 -2 5.335938 -0.96875 C 9.242188 0.132812 13.765625 -0.425781 19.070312 -0.800781 L 25.921875 -0.882812 C 32.628906 -0.699219 37.230469 0.597656 40.75 6.050781 L 34.503906 12.179688 C 30.304688 16.523438 26.652344 20.3125 23.394531 25.757812 C 21.164062 29.339844 19.96875 32.152344 20.324219 36.269531 C 20.628906 39.800781 24.609375 39.796875 26.960938 39.59375 C 35.285156 38.875 46.730469 24.335938 45.707031 12.484375 C 45.527344 10.382812 44.949219 8.570312 44.375 6.839844 C 44.960938 5.773438 50.84375 0.351562 52.484375 -1.226562 L 57.488281 -6.0625 C 60.644531 -9.722656 63.308594 -12.242188 66.695312 -16.175781 C 70.148438 -20.285156 68.824219 -17.96875 68.636719 -20.152344 C 68.210938 -20.199219 67.859375 -20.339844 67.4375 -20.304688 C 66.765625 -20.246094 66.050781 -19.675781 64.292969 -17.492188 C 63.292969 -16.304688 62.34375 -15.542969 61.34375 -14.359375 L 55.367188 -8.082031 C 51.84375 -4.730469 46.265625 1.257812 42.777344 4.015625 C 41.546875 0.5625 35.882812 -2.25 32.519531 -2.976562 C 26.464844 -4.402344 22.644531 -3.5625 16.644531 -3.386719 C 12.089844 -3.160156 5.046875 -2.382812 3.078125 -6.53125 C 2.027344 -8.898438 2.152344 -11.363281 2.261719 -14 C 2.65625 -18.269531 4.765625 -26.242188 6.875 -30.234375 C 8.21875 -33.316406 8.984375 -35.242188 10.957031 -38.886719 L 19.851562 -51.59375 C 20.527344 -52.585938 21.171875 -52.980469 21.945312 -53.808594 C 23.175781 -55.269531 25.246094 -56.804688 26.753906 -57.949219 C 28.917969 -59.40625 31.273438 -60.542969 33.628906 -60.746094 C 36.316406 -60.976562 38.855469 -60.011719 40.8125 -56.960938 C 44.933594 -50.457031 44.332031 -40.75 43.769531 -33.503906 C 43.496094 -31.785156 41.492188 -21.621094 44.101562 -21.847656 C 45.949219 -22.003906 46.089844 -24.304688 46.453125 -26.960938 C 47.535156 -33.066406 48.523438 -40.265625 47.949219 -46.90625 C 47.203125 -55.566406 42.703125 -64.492188 34.667969 -64.390625 C 26.429688 -63.679688 21.042969 -58.390625 15.882812 -52.4375 C 12.980469 -48.800781 8.917969 -42.859375 7.074219 -38.71875 C 2.859375 -30.648438 -1.640625 -19 -0.863281 -10.003906 Z M -0.863281 -10.003906 "/></g></g></g><g fill="#000000" fill-opacity="1"><g transform="translate(187.528686, 224.614916)"><g><path d="M -26.859375 -35.453125 C -26.757812 -34.277344 -25.894531 -34.097656 -24.96875 -34.175781 C -24.464844 -34.21875 -23.96875 -34.347656 -23.554688 -34.46875 C -22.9375 -36.128906 -23.746094 -35.722656 -21.71875 -36.742188 C -20.746094 -37.25 -20.039062 -37.902344 -19.066406 -38.410156 C -14.03125 -40.878906 -9.363281 -42.722656 -3.929688 -44.546875 C -3.113281 -44.871094 -1.207031 -45.375 -0.71875 -45.585938 L -0.800781 -37.703125 C -0.789062 -36.601562 -0.714844 -34.746094 -0.785156 -33.636719 C -0.996094 -31.164062 -0.101562 -19.808594 0.175781 -16.613281 L 0.265625 -12.640625 C 0.792969 -6.503906 1.40625 3.519531 2.433594 9.527344 C 2.605469 11.546875 2.953125 14.566406 5.136719 14.378906 C 7.324219 14.1875 5.5625 8.496094 5.394531 6.5625 C 4.90625 2.878906 3.539062 -13.941406 3.574219 -16.484375 C 3.589844 -18.265625 3.09375 -22.03125 2.882812 -24.46875 C 2.78125 -25.648438 3.035156 -25.667969 2.941406 -26.761719 C 2.867188 -27.601562 2.695312 -28.605469 2.714844 -29.367188 L 2.910156 -46.746094 C 4.890625 -47.339844 17.457031 -50.878906 22.082031 -51.28125 C 22.667969 -51.332031 23.089844 -51.367188 23.433594 -51.3125 C 24.464844 -51.148438 24.183594 -51.460938 24.507812 -50.640625 C 27.703125 -50.917969 26.402344 -54.195312 22.453125 -53.851562 C 17.324219 -53.410156 12.4375 -52.140625 7.640625 -50.796875 C 6.394531 -50.519531 4.671875 -49.863281 3.328125 -49.746094 C 3.09375 -52.433594 4.964844 -50.394531 4.777344 -52.582031 C 4.734375 -53.085938 4.621094 -53.414062 4.597656 -53.667969 C 4.441406 -54.5 4.667969 -53.839844 4.582031 -54.851562 C 4.464844 -56.195312 3.699219 -57.230469 2.773438 -57.148438 C 1.679688 -57.054688 0.464844 -55.425781 0.015625 -50.816406 C -0.324219 -47.90625 -0.136719 -48.683594 -3.589844 -47.453125 C -8.265625 -45.695312 -27.183594 -39.234375 -26.859375 -35.453125 Z M -26.859375 -35.453125 "/></g></g></g><g fill="#000000" fill-opacity="1"><g transform="translate(197.279906, 223.77308)"><g><path d="M 2.554688 -15.550781 C 2.960938 -17.703125 5.453125 -21.21875 7.683594 -21.835938 C 7.664062 -19.125 4.558594 -16.824219 2.554688 -15.550781 Z M -1.054688 -13.203125 C -0.851562 -10.851562 -0.753906 -8.742188 1.4375 -6.898438 C 2.988281 -5.59375 4.722656 -5.148438 6.488281 -5.300781 C 11.613281 -5.746094 16.972656 -11.375 19.8125 -14.753906 C 20.492188 -15.742188 20.484375 -15.828125 20.121094 -17.066406 C 17.601562 -16.847656 18.972656 -16.628906 15.761719 -13.640625 C 15.207031 -13.167969 14.984375 -12.8125 14.355469 -12.25 C 12.785156 -10.84375 9.464844 -8.101562 6.519531 -7.847656 C 5.511719 -7.757812 4.476562 -8.007812 3.652344 -8.699219 C 2.101562 -10.003906 2.152344 -11.363281 2 -13.128906 C 4.589844 -13.523438 7.40625 -16.222656 8.621094 -17.851562 C 10.945312 -21.355469 10.652344 -24.71875 6.957031 -24.398438 C 2.921875 -24.050781 -1.417969 -17.40625 -1.054688 -13.203125 Z M -1.054688 -13.203125 "/></g></g></g><g fill="#000000" fill-opacity="1"><g transform="translate(215.521421, 222.198265)"><g><path d="M 6.25 4.710938 C 6.730469 1.453125 6.675781 1.796875 8.609375 -0.320312 L 12.5 -4.296875 C 12.046875 -1.71875 8.894531 2.957031 6.25 4.710938 Z M 7.714844 -2.867188 C 7.695312 -6 10.855469 -13.554688 12.535156 -13.699219 C 13.042969 -13.746094 13.34375 -13.179688 13.460938 -11.832031 C 13.785156 -8.050781 14.027344 -9.171875 9.433594 -4.539062 C 9.039062 -4.167969 9.039062 -4.167969 8.566406 -3.789062 C 8.179688 -3.332031 8.1875 -3.246094 7.714844 -2.867188 Z M -0.0273438 -0.335938 C 0.585938 6.808594 2.160156 14.210938 3.777344 21.183594 C 4.074219 22.683594 4.140625 23.441406 5.402344 23.332031 C 7.25 23.171875 5.683594 18.734375 5.414062 15.625 C 5.285156 14.109375 5.210938 8.359375 6.40625 7.492188 C 6.957031 7.019531 7.851562 6.605469 8.496094 6.210938 C 15.050781 1.664062 15.808594 -7.207031 16.492188 -8.113281 C 17.46875 -9.554688 25.207031 -15.050781 25.105469 -16.226562 C 25.042969 -16.980469 24.765625 -17.210938 24.261719 -17.167969 C 22.917969 -17.054688 20.109375 -14.269531 18.605469 -13.039062 C 17.96875 -12.5625 17.035156 -11.632812 16.375 -11.40625 C 16.171875 -13.761719 14.75 -16.515625 12.3125 -16.308594 C 6.511719 -15.804688 5.605469 0.195312 3.796875 1.789062 C 3.070312 -6.617188 3.105469 -14.074219 4.011719 -22.195312 C 4.359375 -25.019531 4.65625 -24.539062 3.984375 -26.429688 C 3.542969 -26.644531 3.117188 -26.691406 2.78125 -26.664062 C -0.835938 -26.351562 -0.320312 -3.699219 -0.0273438 -0.335938 Z M -0.0273438 -0.335938 "/></g></g></g><g fill="#000000" fill-opacity="1"><g transform="translate(239.058859, 220.166246)"><g><path d="M -1.105469 -6.933594 C -0.890625 -4.410156 0.699219 11.035156 3.726562 10.773438 C 5.320312 10.636719 5.796875 10.253906 6.234375 8.4375 C 6.972656 5.242188 7.339844 1.652344 8.382812 -1.992188 C 9.171875 -4.601562 11.675781 -12.863281 13.171875 -14.179688 C 13.375 -11.824219 13.785156 -8.050781 14.28125 -6.230469 C 15.167969 -2.832031 16.558594 -1.429688 18.324219 -1.582031 C 22.277344 -1.921875 25.535156 -9.316406 26.953125 -12.488281 C 27.648438 -14.242188 28.664062 -15.261719 27.984375 -17.238281 C 27.640625 -17.292969 27.296875 -17.347656 27.042969 -17.324219 C 26.371094 -17.265625 25.917969 -16.632812 25.0625 -14.78125 C 24.503906 -13.378906 23.933594 -12.144531 23.285156 -10.816406 C 22.03125 -8.675781 20.5625 -5.078125 18.09375 -4.273438 C 16.820312 -6.277344 16.652344 -8.210938 16.375 -11.40625 C 16.246094 -12.921875 15.804688 -18.046875 13.953125 -17.886719 C 11.433594 -17.671875 10.828125 -15.839844 9.761719 -13.460938 C 6.714844 -6.59375 6.175781 -4.003906 4.484375 2.914062 L 3.953125 4.570312 L 2.886719 -4.824219 C 2.160156 -13.230469 2.144531 -23.21875 2.738281 -31.0625 C 2.910156 -33.957031 3.832031 -38.015625 3.019531 -40.574219 C 2.421875 -40.605469 1.996094 -40.652344 1.660156 -40.625 C 0.816406 -40.550781 0.617188 -39.941406 0.0507812 -37.691406 C -0.832031 -32.195312 -1.703125 -26.613281 -1.472656 -20.960938 C -1.445312 -19.691406 -1.445312 -17.746094 -1.421875 -16.476562 Z M -1.105469 -6.933594 "/></g></g></g><g fill="#000000" fill-opacity="1"><g transform="translate(264.697854, 217.952796)"><g><path d="M 2.554688 -15.550781 C 2.960938 -17.703125 5.453125 -21.21875 7.683594 -21.835938 C 7.664062 -19.125 4.558594 -16.824219 2.554688 -15.550781 Z M -1.054688 -13.203125 C -0.851562 -10.851562 -0.753906 -8.742188 1.4375 -6.898438 C 2.988281 -5.59375 4.722656 -5.148438 6.488281 -5.300781 C 11.613281 -5.746094 16.972656 -11.375 19.8125 -14.753906 C 20.492188 -15.742188 20.484375 -15.828125 20.121094 -17.066406 C 17.601562 -16.847656 18.972656 -16.628906 15.761719 -13.640625 C 15.207031 -13.167969 14.984375 -12.8125 14.355469 -12.25 C 12.785156 -10.84375 9.464844 -8.101562 6.519531 -7.847656 C 5.511719 -7.757812 4.476562 -8.007812 3.652344 -8.699219 C 2.101562 -10.003906 2.152344 -11.363281 2 -13.128906 C 4.589844 -13.523438 7.40625 -16.222656 8.621094 -17.851562 C 10.945312 -21.355469 10.652344 -24.71875 6.957031 -24.398438 C 2.921875 -24.050781 -1.417969 -17.40625 -1.054688 -13.203125 Z M -1.054688 -13.203125 "/></g></g></g><g fill="#000000" fill-opacity="1"><g transform="translate(282.939369, 216.377981)"><g><path d="M 1.976562 -4.574219 C 5.253906 -4.859375 7.6875 -15.90625 10.304688 -17.996094 C 11.195312 -16.464844 10.3125 -13 12.425781 -8.101562 C 13.378906 -5.898438 15.003906 -3.75 17.609375 -3.976562 C 18.113281 -4.019531 18.613281 -4.148438 19.1875 -4.367188 C 21.074219 -5.039062 23.476562 -8.632812 24.523438 -10.246094 C 24.96875 -10.964844 29.390625 -17.613281 26.113281 -17.328125 C 24.597656 -17.199219 21.007812 -6.808594 17.644531 -6.519531 C 14.535156 -6.25 13.722656 -13.71875 13.539062 -15.820312 L 12.628906 -20.484375 C 12.128906 -21.371094 11.503906 -21.742188 10.914062 -21.691406 C 8.898438 -21.515625 6.746094 -17.011719 6.320312 -16.042969 L 2.816406 -9.558594 C 2.25 -16.117188 7.03125 -24.488281 3.332031 -24.171875 C 0.140625 -23.894531 -3.402344 -4.109375 1.976562 -4.574219 Z M 1.976562 -4.574219 "/></g></g></g><g fill="#000000" fill-opacity="1"><g transform="translate(126.849277, 154.99017)"><g><path d="M 7.78125 -6.203125 C 7.175781 -4.992188 6.050781 -3.863281 4.40625 -2.8125 L 1.328125 -0.84375 C 1.347656 -0.8125 1.390625 -0.878906 1.453125 -1.046875 C 1.523438 -1.210938 1.535156 -1.445312 1.484375 -1.75 C 1.429688 -2.0625 1.253906 -2.453125 0.953125 -2.921875 L -3.953125 -10.609375 C -4.210938 -11.015625 -4.457031 -11.289062 -4.6875 -11.4375 C -4.925781 -11.582031 -5.128906 -11.648438 -5.296875 -11.640625 C -5.472656 -11.640625 -5.554688 -11.628906 -5.546875 -11.609375 L -2.46875 -13.578125 C -0.875 -14.597656 0.546875 -15.140625 1.796875 -15.203125 C 2.921875 -15.273438 3.957031 -15.0625 4.90625 -14.5625 C 5.851562 -14.0625 6.640625 -13.328125 7.265625 -12.359375 C 7.941406 -11.296875 8.316406 -10.238281 8.390625 -9.1875 C 8.472656 -8.132812 8.269531 -7.140625 7.78125 -6.203125 Z M 1.8125 -14.203125 C 1.15625 -14.222656 0.523438 -14.132812 -0.078125 -13.9375 C -0.679688 -13.738281 -1.34375 -13.410156 -2.0625 -12.953125 L -3.328125 -12.140625 L 2.734375 -2.625 L 4 -3.4375 C 4.84375 -3.976562 5.492188 -4.492188 5.953125 -4.984375 C 6.410156 -5.484375 6.742188 -6.007812 6.953125 -6.5625 C 7.203125 -7.289062 7.257812 -8.0625 7.125 -8.875 C 7 -9.695312 6.664062 -10.535156 6.125 -11.390625 C 5.539062 -12.285156 4.867188 -12.976562 4.109375 -13.46875 C 3.359375 -13.957031 2.59375 -14.203125 1.8125 -14.203125 Z M 1.8125 -14.203125 "/></g></g></g><g fill="#000000" fill-opacity="1"><g transform="translate(141.503968, 146.106527)"><g><path d="M 1.4375 -0.640625 C 1.457031 -0.597656 1.515625 -0.648438 1.609375 -0.796875 C 1.703125 -0.953125 1.742188 -1.179688 1.734375 -1.484375 C 1.734375 -1.785156 1.625 -2.179688 1.40625 -2.671875 L -2.296875 -10.984375 C -2.503906 -11.453125 -2.71875 -11.78125 -2.9375 -11.96875 C -3.15625 -12.164062 -3.351562 -12.28125 -3.53125 -12.3125 C -3.707031 -12.34375 -3.785156 -12.335938 -3.765625 -12.296875 L 2.375 -15.03125 L 3.125 -13.34375 C 2.625 -13.9375 1.863281 -14.003906 0.84375 -13.546875 L -1.515625 -12.5 L 0.640625 -7.671875 L 3.5625 -8.96875 C 3.789062 -9.070312 3.960938 -9.195312 4.078125 -9.34375 C 4.203125 -9.488281 4.285156 -9.617188 4.328125 -9.734375 C 4.367188 -9.859375 4.394531 -9.929688 4.40625 -9.953125 L 5.140625 -8.3125 C 5.117188 -8.320312 5.050781 -8.347656 4.9375 -8.390625 C 4.820312 -8.441406 4.671875 -8.46875 4.484375 -8.46875 C 4.296875 -8.46875 4.09375 -8.421875 3.875 -8.328125 L 0.9375 -7.015625 L 3.078125 -2.203125 L 5.71875 -3.375 C 6.226562 -3.601562 6.625 -3.898438 6.90625 -4.265625 C 7.1875 -4.640625 7.328125 -5.023438 7.328125 -5.421875 L 7.828125 -3.5 Z M 1.4375 -0.640625 "/></g></g></g><g fill="#000000" fill-opacity="1"><g transform="translate(153.616764, 140.887345)"><g><path d="M 6.234375 -14.0625 C 6.171875 -14.300781 6.046875 -14.488281 5.859375 -14.625 C 5.679688 -14.769531 5.453125 -14.828125 5.171875 -14.796875 L 8.171875 -15.65625 C 8.015625 -15.59375 7.84375 -15.394531 7.65625 -15.0625 C 7.46875 -14.738281 7.328125 -14.195312 7.234375 -13.4375 L 5.890625 -1.234375 L -1.875 -10.859375 C -2.3125 -11.410156 -2.691406 -11.769531 -3.015625 -11.9375 C -3.347656 -12.113281 -3.597656 -12.203125 -3.765625 -12.203125 L -0.796875 -13.0625 C -1.097656 -12.882812 -1.203125 -12.628906 -1.109375 -12.296875 C -1.054688 -12.117188 -0.957031 -11.941406 -0.8125 -11.765625 C -0.675781 -11.597656 -0.59375 -11.492188 -0.5625 -11.453125 L 5.328125 -3.984375 L 6.3125 -13.1875 C 6.34375 -13.488281 6.316406 -13.78125 6.234375 -14.0625 Z M 6.234375 -14.0625 "/></g></g></g><g fill="#000000" fill-opacity="1"><g transform="translate(168.141976, 136.99125)"><g><path d="M 1.5625 -0.21875 C 1.570312 -0.175781 1.640625 -0.210938 1.765625 -0.328125 C 1.898438 -0.441406 2.003906 -0.644531 2.078125 -0.9375 C 2.148438 -1.238281 2.148438 -1.65625 2.078125 -2.1875 L 0.78125 -11.203125 C 0.707031 -11.703125 0.59375 -12.070312 0.4375 -12.3125 C 0.28125 -12.5625 0.125 -12.722656 -0.03125 -12.796875 C -0.1875 -12.878906 -0.265625 -12.898438 -0.265625 -12.859375 L 6.390625 -13.828125 L 6.65625 -12 C 6.332031 -12.695312 5.617188 -12.96875 4.515625 -12.8125 L 1.96875 -12.4375 L 2.71875 -7.21875 L 5.859375 -7.671875 C 6.109375 -7.710938 6.3125 -7.78125 6.46875 -7.875 C 6.632812 -7.976562 6.753906 -8.082031 6.828125 -8.1875 C 6.898438 -8.289062 6.941406 -8.351562 6.953125 -8.375 L 7.21875 -6.59375 C 7.195312 -6.613281 7.132812 -6.660156 7.03125 -6.734375 C 6.9375 -6.804688 6.800781 -6.867188 6.625 -6.921875 C 6.445312 -6.972656 6.234375 -6.976562 5.984375 -6.9375 L 2.828125 -6.484375 L 3.578125 -1.28125 L 6.4375 -1.703125 C 6.976562 -1.773438 7.429688 -1.945312 7.796875 -2.21875 C 8.171875 -2.5 8.414062 -2.835938 8.53125 -3.234375 L 8.484375 -1.234375 Z M 1.5625 -0.21875 "/></g></g></g><g fill="#000000" fill-opacity="1"><g transform="translate(181.27384, 135.326908)"><g><path d="M 2.203125 -11.078125 C 2.191406 -11.566406 2.125 -11.9375 2 -12.1875 C 1.875 -12.445312 1.738281 -12.617188 1.59375 -12.703125 C 1.445312 -12.796875 1.375 -12.828125 1.375 -12.796875 L 4.328125 -12.84375 C 4.328125 -12.875 4.25 -12.84375 4.09375 -12.75 C 3.945312 -12.65625 3.816406 -12.476562 3.703125 -12.21875 C 3.585938 -11.96875 3.535156 -11.597656 3.546875 -11.109375 L 3.703125 -0.8125 L 6.734375 -0.859375 C 7.296875 -0.867188 7.773438 -0.988281 8.171875 -1.21875 C 8.578125 -1.445312 8.863281 -1.742188 9.03125 -2.109375 L 8.71875 -0.140625 L 1.578125 -0.03125 C 1.578125 0.0078125 1.648438 -0.015625 1.796875 -0.109375 C 1.941406 -0.203125 2.070312 -0.390625 2.1875 -0.671875 C 2.300781 -0.953125 2.351562 -1.359375 2.34375 -1.890625 Z M 2.203125 -11.078125 "/></g></g></g><g fill="#000000" fill-opacity="1"><g transform="translate(193.996865, 135.15766)"><g><path d="M 2.015625 -6.015625 C 2.203125 -7.316406 2.640625 -8.4375 3.328125 -9.375 C 4.023438 -10.3125 4.914062 -10.992188 6 -11.421875 C 7.09375 -11.847656 8.300781 -11.972656 9.625 -11.796875 C 10.726562 -11.640625 11.734375 -11.253906 12.640625 -10.640625 C 13.546875 -10.023438 14.21875 -9.191406 14.65625 -8.140625 C 15.101562 -7.085938 15.234375 -5.878906 15.046875 -4.515625 C 14.867188 -3.210938 14.429688 -2.09375 13.734375 -1.15625 C 13.035156 -0.21875 12.140625 0.457031 11.046875 0.875 C 9.960938 1.300781 8.753906 1.425781 7.421875 1.25 C 6.316406 1.09375 5.316406 0.707031 4.421875 0.09375 C 3.535156 -0.519531 2.863281 -1.351562 2.40625 -2.40625 C 1.957031 -3.457031 1.828125 -4.660156 2.015625 -6.015625 Z M 13.546875 -4.4375 C 13.691406 -5.550781 13.597656 -6.59375 13.265625 -7.5625 C 12.929688 -8.53125 12.398438 -9.328125 11.671875 -9.953125 C 10.941406 -10.578125 10.078125 -10.957031 9.078125 -11.09375 C 8.140625 -11.21875 7.28125 -11.09375 6.5 -10.71875 C 5.71875 -10.351562 5.066406 -9.769531 4.546875 -8.96875 C 4.023438 -8.175781 3.6875 -7.21875 3.53125 -6.09375 C 3.375 -4.976562 3.460938 -3.9375 3.796875 -2.96875 C 4.140625 -2.007812 4.675781 -1.21875 5.40625 -0.59375 C 6.144531 0.0195312 7.015625 0.394531 8.015625 0.53125 C 8.929688 0.65625 9.78125 0.535156 10.5625 0.171875 C 11.34375 -0.191406 11.992188 -0.769531 12.515625 -1.5625 C 13.046875 -2.351562 13.390625 -3.3125 13.546875 -4.4375 Z M 13.546875 -4.4375 "/></g></g></g><g fill="#000000" fill-opacity="1"><g transform="translate(212.225757, 138.122991)"><g><path d="M 11.859375 -6.15625 C 11.648438 -5.46875 11.300781 -4.898438 10.8125 -4.453125 C 10.332031 -4.015625 9.738281 -3.734375 9.03125 -3.609375 C 8.332031 -3.492188 7.578125 -3.554688 6.765625 -3.796875 C 6.265625 -3.953125 5.75 -4.160156 5.21875 -4.421875 L 4.046875 -0.546875 C 3.910156 -0.0859375 3.863281 0.273438 3.90625 0.546875 C 3.945312 0.828125 4.023438 1.03125 4.140625 1.15625 C 4.265625 1.28125 4.332031 1.332031 4.34375 1.3125 L 1.515625 0.453125 C 1.503906 0.472656 1.578125 0.460938 1.734375 0.421875 C 1.898438 0.390625 2.078125 0.269531 2.265625 0.0625 C 2.460938 -0.132812 2.628906 -0.46875 2.765625 -0.9375 L 5.453125 -9.84375 C 5.597656 -10.320312 5.648438 -10.703125 5.609375 -10.984375 C 5.566406 -11.273438 5.488281 -11.484375 5.375 -11.609375 C 5.269531 -11.742188 5.210938 -11.796875 5.203125 -11.765625 L 8.6875 -10.71875 C 9.28125 -10.53125 9.765625 -10.335938 10.140625 -10.140625 C 10.515625 -9.953125 10.828125 -9.734375 11.078125 -9.484375 C 11.515625 -9.054688 11.800781 -8.539062 11.9375 -7.9375 C 12.070312 -7.34375 12.046875 -6.75 11.859375 -6.15625 Z M 10.4375 -6.328125 C 10.6875 -7.171875 10.625 -7.929688 10.25 -8.609375 C 9.882812 -9.296875 9.269531 -9.769531 8.40625 -10.03125 L 7.03125 -10.4375 L 5.4375 -5.125 C 5.914062 -4.882812 6.429688 -4.675781 6.984375 -4.5 C 7.816406 -4.25 8.539062 -4.289062 9.15625 -4.625 C 9.769531 -4.96875 10.195312 -5.535156 10.4375 -6.328125 Z M 10.4375 -6.328125 "/></g></g></g><g fill="#000000" fill-opacity="1"><g transform="translate(225.166322, 142.274612)"><g><path d="M 1.4375 0.65625 C 1.414062 0.695312 1.492188 0.703125 1.671875 0.671875 C 1.847656 0.640625 2.046875 0.519531 2.265625 0.3125 C 2.492188 0.113281 2.71875 -0.222656 2.9375 -0.703125 L 6.6875 -9.015625 C 6.894531 -9.472656 7 -9.847656 7 -10.140625 C 7 -10.441406 6.953125 -10.664062 6.859375 -10.8125 C 6.765625 -10.957031 6.707031 -11.015625 6.6875 -10.984375 L 12.8125 -8.21875 L 12.0625 -6.53125 C 12.164062 -7.300781 11.707031 -7.914062 10.6875 -8.375 L 8.34375 -9.4375 L 6.171875 -4.625 L 9.078125 -3.3125 C 9.304688 -3.207031 9.515625 -3.15625 9.703125 -3.15625 C 9.890625 -3.164062 10.039062 -3.191406 10.15625 -3.234375 C 10.269531 -3.285156 10.335938 -3.316406 10.359375 -3.328125 L 9.625 -1.6875 C 9.625 -1.71875 9.601562 -1.789062 9.5625 -1.90625 C 9.519531 -2.019531 9.4375 -2.144531 9.3125 -2.28125 C 9.1875 -2.414062 9.007812 -2.535156 8.78125 -2.640625 L 5.859375 -3.953125 L 3.703125 0.84375 L 6.328125 2.03125 C 6.835938 2.257812 7.320312 2.351562 7.78125 2.3125 C 8.238281 2.28125 8.617188 2.132812 8.921875 1.875 L 7.8125 3.53125 Z M 1.4375 0.65625 "/></g></g></g><g fill="#000000" fill-opacity="1"><g transform="translate(237.107105, 147.778268)"><g><path d="M 8.875 4.484375 C 7.53125 4.441406 6.039062 3.890625 4.40625 2.828125 L 1.328125 0.859375 C 1.304688 0.890625 1.382812 0.898438 1.5625 0.890625 C 1.738281 0.878906 1.953125 0.785156 2.203125 0.609375 C 2.460938 0.429688 2.742188 0.113281 3.046875 -0.34375 L 8 -8.015625 C 8.25 -8.421875 8.390625 -8.757812 8.421875 -9.03125 C 8.460938 -9.3125 8.445312 -9.523438 8.375 -9.671875 C 8.300781 -9.828125 8.257812 -9.894531 8.25 -9.875 L 11.3125 -7.90625 C 12.90625 -6.875 13.992188 -5.804688 14.578125 -4.703125 C 15.097656 -3.710938 15.328125 -2.679688 15.265625 -1.609375 C 15.210938 -0.535156 14.875 0.484375 14.25 1.453125 C 13.570312 2.515625 12.769531 3.296875 11.84375 3.796875 C 10.925781 4.304688 9.9375 4.535156 8.875 4.484375 Z M 13.65625 -4.28125 C 13.40625 -4.875 13.0625 -5.40625 12.625 -5.875 C 12.195312 -6.351562 11.625 -6.820312 10.90625 -7.28125 L 9.640625 -8.09375 L 3.53125 1.390625 L 4.796875 2.203125 C 5.640625 2.742188 6.378906 3.117188 7.015625 3.328125 C 7.660156 3.535156 8.273438 3.617188 8.859375 3.578125 C 9.628906 3.515625 10.359375 3.25 11.046875 2.78125 C 11.734375 2.3125 12.351562 1.648438 12.90625 0.796875 C 13.488281 -0.0976562 13.835938 -0.988281 13.953125 -1.875 C 14.078125 -2.757812 13.976562 -3.5625 13.65625 -4.28125 Z M 13.65625 -4.28125 "/></g></g></g><g fill="#000000" fill-opacity="1"><g transform="translate(251.329523, 157.532961)"><g/></g></g><g fill="#000000" fill-opacity="1"><g transform="translate(257.662659, 162.863744)"><g><path d="M 5.375 5.1875 C 5.082031 5.019531 4.769531 4.800781 4.4375 4.53125 C 4.113281 4.269531 3.703125 3.878906 3.203125 3.359375 L 1.09375 1.140625 C 1.226562 1.222656 1.445312 1.25 1.75 1.21875 C 2.050781 1.1875 2.453125 0.9375 2.953125 0.46875 L 9.59375 -5.875 C 10.0625 -6.320312 10.320312 -6.691406 10.375 -6.984375 C 10.4375 -7.273438 10.421875 -7.5 10.328125 -7.65625 L 12.4375 -5.453125 C 12.988281 -4.878906 13.382812 -4.414062 13.625 -4.0625 C 13.863281 -3.71875 14.035156 -3.390625 14.140625 -3.078125 C 14.328125 -2.503906 14.351562 -1.945312 14.21875 -1.40625 C 14.09375 -0.875 13.832031 -0.421875 13.4375 -0.046875 C 12.832031 0.523438 12.140625 0.835938 11.359375 0.890625 C 10.578125 0.941406 9.84375 0.738281 9.15625 0.28125 C 9.5 0.71875 9.75 1.207031 9.90625 1.75 C 10.0625 2.289062 10.085938 2.828125 9.984375 3.359375 C 9.878906 3.898438 9.617188 4.367188 9.203125 4.765625 C 8.628906 5.304688 8.015625 5.597656 7.359375 5.640625 C 6.710938 5.679688 6.050781 5.53125 5.375 5.1875 Z M 13.09375 -2.90625 C 13.0625 -3.195312 12.976562 -3.476562 12.84375 -3.75 C 12.71875 -4.03125 12.488281 -4.347656 12.15625 -4.703125 L 11.265625 -5.625 L 7.4375 -1.96875 L 8.484375 -0.875 C 8.785156 -0.550781 9.09375 -0.332031 9.40625 -0.21875 C 9.71875 -0.101562 10.023438 -0.0390625 10.328125 -0.03125 C 10.671875 -0.0195312 11.007812 -0.078125 11.34375 -0.203125 C 11.675781 -0.335938 11.96875 -0.523438 12.21875 -0.765625 C 12.519531 -1.054688 12.75 -1.390625 12.90625 -1.765625 C 13.070312 -2.140625 13.132812 -2.519531 13.09375 -2.90625 Z M 9.015625 1.515625 C 8.992188 1.222656 8.890625 0.921875 8.703125 0.609375 C 8.523438 0.296875 8.234375 -0.0703125 7.828125 -0.5 L 6.90625 -1.46875 L 3.109375 2.171875 L 4.328125 3.4375 C 4.941406 4.082031 5.570312 4.441406 6.21875 4.515625 C 6.863281 4.597656 7.515625 4.320312 8.171875 3.6875 C 8.796875 3.09375 9.078125 2.367188 9.015625 1.515625 Z M 9.015625 1.515625 "/></g></g></g><g fill="#000000" fill-opacity="1"><g transform="translate(267.402242, 173.436193)"><g><path d="M 16.671875 1.296875 C 16.578125 1.222656 16.347656 1.144531 15.984375 1.0625 C 15.628906 0.988281 15.066406 0.988281 14.296875 1.0625 L 7.953125 1.671875 L 4.90625 3.875 C 4.40625 4.238281 4.101562 4.5625 4 4.84375 C 3.894531 5.132812 3.878906 5.34375 3.953125 5.46875 L 2.296875 3.1875 C 2.398438 3.300781 2.601562 3.351562 2.90625 3.34375 C 3.207031 3.34375 3.613281 3.160156 4.125 2.796875 L 7.203125 0.578125 L 9.796875 -5.21875 C 10.109375 -5.894531 10.285156 -6.414062 10.328125 -6.78125 C 10.367188 -7.144531 10.359375 -7.40625 10.296875 -7.5625 L 12.109375 -5.03125 C 11.878906 -5.238281 11.628906 -5.242188 11.359375 -5.046875 C 11.273438 -4.992188 11.191406 -4.890625 11.109375 -4.734375 C 11.023438 -4.578125 10.914062 -4.351562 10.78125 -4.0625 L 8.515625 0.890625 L 13.875 0.359375 C 14.269531 0.316406 14.617188 0.191406 14.921875 -0.015625 C 15.109375 -0.148438 15.195312 -0.300781 15.1875 -0.46875 C 15.175781 -0.632812 15.140625 -0.785156 15.078125 -0.921875 Z M 16.671875 1.296875 "/></g></g></g></svg>